<svg width="43" height="63" viewBox="0 0 43 63" fill="none" xmlns="http://www.w3.org/2000/svg">
<path id="Vector" d="M17.5392 52.8474C19.3684 52.8531 21.1681 52.3873 22.7655 51.4966C24.4094 50.6201 25.8554 49.413 27.0131 47.9537C28.2194 46.4105 29.1679 44.6821 29.8218 42.8352C30.5116 40.927 30.8618 38.9139 30.859 36.8852C30.969 34.8269 30.5293 32.7764 29.5865 30.9444C28.7451 29.5252 27.1787 28.8015 24.9083 28.8015C23.919 28.8354 22.9353 28.9699 21.9721 29.2025C20.7763 29.4695 19.67 30.0431 18.7617 30.8661L13.5749 52.5536L14.4071 52.71C14.6544 52.7706 14.9074 52.8101 15.1603 52.8277C15.4852 52.8679 15.8121 52.8841 16.1391 52.8763L17.5385 52.8467L17.5392 52.8474ZM27.8446 18.9464C30.11 18.8943 32.3592 19.3565 34.421 20.2972C36.2108 21.1505 37.7836 22.3985 39.0209 23.948C40.2878 25.5503 41.2194 27.3901 41.7613 29.3596C42.3546 31.5313 42.647 33.7735 42.6322 36.0248C42.6294 43.029 39.9144 49.759 35.0573 54.8056C32.7024 57.2212 29.9007 59.1547 26.8073 60.5013C23.5639 61.9289 20.0555 62.6568 16.5118 62.6349H14.0061C12.644 62.5905 11.2841 62.4736 9.93469 62.2826C8.28653 62.0437 6.65317 61.7175 5.04166 61.3039C3.35192 60.9029 1.71152 60.3188 0.148621 59.562L13.899 1.9575L26.1816 0L21.2886 20.4445C22.3075 19.9836 23.3652 19.6137 24.4496 19.3389C25.5672 19.0669 26.715 18.9316 27.865 18.938L27.8453 18.9478L27.8446 18.9464Z" fill="#4D4D4D"/>
</svg>
