<svg width="100" height="100" viewBox="0 0 100 100" fill="none" xmlns="http://www.w3.org/2000/svg">
<g id="Group">
<path id="Vector" fill-rule="evenodd" clip-rule="evenodd" d="M50 0C77.6162 0 100 22.3838 100 50C100 77.6162 77.6162 100 50 100C22.3838 100 0 77.6162 0 50C0 22.3838 22.3838 0 50 0Z" fill="#F0B90B"/>
<path id="Vector_2" d="M27.48 50L27.516 63.2212L38.75 69.8318V77.5721L20.9415 67.1274V46.1338L27.48 50ZM27.48 36.7789V44.4832L20.9375 40.613V32.9087L27.48 29.0385L34.0545 32.9087L27.48 36.7789ZM43.4415 32.9087L49.984 29.0385L56.5585 32.9087L49.984 36.7789L43.4415 32.9087Z" fill="white"/>
<path id="Vector_3" d="M32.2075 60.4808V52.7404L38.75 56.6106V64.3149L32.2075 60.4808ZM43.4415 72.6042L49.984 76.4744L56.5585 72.6042V80.3085L49.984 84.1787L43.4415 80.3085V72.6042ZM65.9415 32.9087L72.484 29.0385L79.0585 32.9087V40.613L72.484 44.4832V36.7789L65.9415 32.9087ZM72.484 63.2212L72.52 50L79.0625 46.1298V67.1234L61.254 77.5681V69.8277L72.484 63.2212Z" fill="white"/>
<path id="Vector_4" d="M67.7925 60.4808L61.25 64.3149V56.6106L67.7925 52.7404V60.4808Z" fill="white"/>
<path id="Vector_5" d="M67.7925 39.5192L67.8285 47.2596L56.5625 53.8702V67.1234L50.02 70.9575L43.4776 67.1234V53.8702L32.2115 47.2596V39.5192L38.782 35.649L49.98 42.2916L61.246 35.649L67.8205 39.5192H67.7925ZM32.2075 26.3021L49.984 15.8213L67.7925 26.3021L61.25 30.1723L49.984 23.5296L38.75 30.1723L32.2075 26.3021Z" fill="white"/>
</g>
</svg>
