<svg width="31" height="41" viewBox="0 0 31 41" fill="none" xmlns="http://www.w3.org/2000/svg">
<path id="Vector" d="M23.4292 16.7955C22.4504 20.7105 16.4807 18.7036 14.5429 18.2245L16.2552 11.3739C18.1634 11.8439 24.4079 12.7438 23.3996 16.7955H23.4292ZM22.3624 27.8654C21.3054 32.1313 14.1223 29.8229 11.7927 29.2444L13.6812 21.6793C16.0107 22.2663 23.4679 23.4113 22.3624 27.8654ZM30.1916 16.8547C30.8082 12.6853 27.6373 10.4445 23.3411 8.95703L24.7504 3.31003L21.2765 2.44895L19.9067 7.94939C19.0061 7.72461 18.0767 7.50899 17.1565 7.30323L18.5263 1.74431L15.0912 0.88324L13.6819 6.53024L11.4897 6.04122L6.74326 4.85672L5.83286 8.5272C5.83286 8.5272 8.37733 9.11416 8.32871 9.15362C9.30041 9.2713 10.0093 10.1345 9.93388 11.1111L8.32871 17.541C8.4492 17.5685 8.56758 17.6072 8.68103 17.6587L8.31884 17.5607L6.07738 26.5745C5.86739 27.234 5.16275 27.5969 4.5025 27.3869H4.5018C4.5018 27.4356 1.99609 26.7704 1.99609 26.7704L0.292969 30.6854L4.76533 31.7917L7.21185 32.4279L5.7927 38.1334L9.22783 38.9945L10.6371 33.3475C11.563 33.6019 12.4741 33.8365 13.3676 34.0521L11.978 39.7189L15.4132 40.5701L16.8323 34.8745C22.7041 35.9815 27.0983 35.5396 28.9578 30.2358C30.4552 25.9685 28.8796 23.5121 25.7968 21.9069C28.0474 21.3883 29.7118 19.9494 30.1909 16.8568L30.1916 16.8547Z" fill="white"/>
</svg>
