<svg width="100" height="100" viewBox="0 0 100 100" fill="none" xmlns="http://www.w3.org/2000/svg">
<g id="dogecoin-doge-logo-alternative 1" clip-path="url(#clip0_20_120)">
<g id="Group">
<path id="Vector" d="M51.2 32.95H44.056V47.0345H55.2955V52.9315H44.056V67.015H51.55C53.4755 67.015 67.358 67.2325 67.3365 50.629C67.315 34.0255 53.872 32.95 51.2 32.95Z" fill="#C2A633"/>
<path id="Vector_2" d="M50 0C22.3855 0 0 22.3855 0 50C0 77.6145 22.3855 100 50 100C77.6145 100 100 77.6145 100 50C100 22.3855 77.6145 0 50 0ZM51.9645 77.005H33.857V52.932H27.474V47.035H33.8565V22.9605H49.3975C53.074 22.9605 77.4255 22.197 77.4255 50.4345C77.4255 79.139 51.965 77.005 51.965 77.005H51.9645Z" fill="#C2A633"/>
</g>
</g>
<defs>
<clipPath id="clip0_20_120">
<rect width="100" height="100" fill="white"/>
</clipPath>
</defs>
</svg>
