<svg width="130" height="130" viewBox="0 0 130 130" fill="none" xmlns="http://www.w3.org/2000/svg">
<g id="New employee-rafiki (1) 1" clip-path="url(#clip0_42_667)">
<g id="freepik--background-complete--inject-53">
<path id="Vector" d="M115.625 90.7763H68.64C68.2361 90.7756 67.849 90.6149 67.5634 90.3293C67.2778 90.0437 67.1171 89.6566 67.1164 89.2527V20.7999C67.1178 20.3965 67.2788 20.01 67.5643 19.725C67.8498 19.44 68.2366 19.2796 68.64 19.2789H115.625C116.028 19.2796 116.415 19.44 116.7 19.725C116.986 20.01 117.147 20.3965 117.148 20.7999V89.2527C117.148 89.6566 116.987 90.0437 116.701 90.3293C116.416 90.6149 116.028 90.7756 115.625 90.7763ZM68.64 19.3439C68.4478 19.3426 68.2572 19.3792 68.0792 19.4517C67.9012 19.5242 67.7393 19.6312 67.6028 19.7665C67.4663 19.9018 67.3579 20.0628 67.2838 20.2401C67.2097 20.4175 67.1713 20.6077 67.171 20.7999V89.2527C67.171 89.6396 67.3247 90.0106 67.5982 90.2841C67.8717 90.5577 68.2427 90.7113 68.6296 90.7113H115.625C116.011 90.7113 116.382 90.5577 116.656 90.2841C116.93 90.0106 117.083 89.6396 117.083 89.2527V20.7999C117.083 20.4131 116.93 20.0421 116.656 19.7685C116.382 19.495 116.011 19.3413 115.625 19.3413L68.64 19.3439Z" fill="#F0F0F0"/>
<path id="Vector_2" d="M61.4328 90.7764H14.4378C14.0339 90.7757 13.6468 90.6149 13.3612 90.3293C13.0756 90.0438 12.9149 89.6566 12.9142 89.2528V20.8C12.9149 20.3961 13.0756 20.009 13.3612 19.7234C13.6468 19.4378 14.0339 19.2771 14.4378 19.2764H61.4328C61.8367 19.2771 62.2238 19.4378 62.5094 19.7234C62.795 20.009 62.9557 20.3961 62.9564 20.8V89.2528C62.9557 89.6566 62.795 90.0438 62.5094 90.3293C62.2238 90.6149 61.8367 90.7757 61.4328 90.7764ZM14.4378 19.344C14.0514 19.344 13.6808 19.4973 13.4073 19.7703C13.1339 20.0432 12.9799 20.4136 12.9792 20.8V89.2528C12.9792 89.6396 13.1329 90.0106 13.4064 90.2841C13.6799 90.5577 14.0509 90.7114 14.4378 90.7114H61.4328C61.8196 90.7114 62.1906 90.5577 62.4642 90.2841C62.7377 90.0106 62.8914 89.6396 62.8914 89.2528V20.8C62.8914 20.4131 62.7377 20.0421 62.4642 19.7686C62.1906 19.495 61.8196 19.3414 61.4328 19.3414L14.4378 19.344Z" fill="#F0F0F0"/>
<path id="Vector_3" d="M130.205 106.655H0.205383V106.72H130.205V106.655Z" fill="#E0E0E0"/>
<path id="Vector_4" d="M122.304 75.7717H72.904C72.904 76.1731 73.0634 76.5579 73.3472 76.8417C73.631 77.1255 74.0159 77.2849 74.4172 77.2849H120.788C121.19 77.2849 121.575 77.1256 121.859 76.8419C122.143 76.5582 122.303 76.1733 122.304 75.7717Z" fill="#E0E0E0"/>
<path id="Vector_5" d="M112.601 90.0925H83.0518V91.4939H112.601V90.0925Z" fill="#E0E0E0"/>
<path id="Vector_6" d="M111.556 106.673L115.583 77.2849H114.169L110.141 106.673H111.556Z" fill="#E6E6E6"/>
<path id="Vector_7" d="M114.865 106.673L110.773 77.2849H112.187L116.28 106.673H114.865Z" fill="#E6E6E6"/>
<path id="Vector_8" d="M80.7924 106.673L84.9914 77.2849H83.577L79.378 106.673H80.7924Z" fill="#E6E6E6"/>
<path id="Vector_9" d="M84.1022 106.673L80.0748 77.2849H81.4892L85.5166 106.673H84.1022Z" fill="#E6E6E6"/>
<path id="Vector_10" d="M123.96 73.3408H71.2452V75.7796H123.96V73.3408Z" fill="#E6E6E6"/>
<path id="Vector_11" d="M90.2434 73.3486H113.123L113.36 72.8C113.516 72.449 113.1 72.0954 112.544 72.0954H91.4446C91.285 72.0814 91.1245 72.1113 90.9806 72.1818C90.8367 72.2524 90.7148 72.361 90.6282 72.4958L90.2434 73.3486Z" fill="#E0E0E0"/>
<path id="Vector_12" d="M119.392 57.4262L116.464 69.81C116.426 69.9705 116.335 70.1134 116.206 70.2158C116.077 70.3182 115.917 70.374 115.752 70.3742H97.7132C97.6029 70.374 97.4941 70.3488 97.3948 70.3007C97.2956 70.2526 97.2085 70.1827 97.14 70.0962C97.0716 70.0097 97.0235 69.9089 96.9994 69.8013C96.9753 69.6937 96.9757 69.582 97.0008 69.4746L99.9284 57.0882C99.9669 56.9282 100.058 56.7859 100.187 56.684C100.316 56.5822 100.476 56.5267 100.641 56.5266H118.68C118.79 56.5264 118.899 56.5512 118.999 56.5992C119.098 56.6471 119.185 56.7171 119.254 56.8036C119.323 56.8902 119.371 56.9912 119.394 57.0991C119.418 57.2069 119.418 57.3188 119.392 57.4262Z" fill="#F0F0F0"/>
<path id="Vector_13" d="M110.627 63.934C110.579 64.3167 110.394 64.6693 110.108 64.9282C109.822 65.1871 109.453 65.3352 109.067 65.3458C108.888 65.3498 108.709 65.3147 108.545 65.2429C108.38 65.1711 108.233 65.0644 108.113 64.9301C107.994 64.7958 107.905 64.6372 107.853 64.4652C107.801 64.2932 107.787 64.1119 107.812 63.934C107.86 63.5512 108.045 63.1986 108.331 62.9397C108.617 62.6808 108.986 62.5327 109.372 62.5222C109.551 62.5182 109.73 62.5533 109.894 62.625C110.059 62.6968 110.206 62.8035 110.326 62.9378C110.445 63.0721 110.534 63.2307 110.586 63.4027C110.638 63.5747 110.652 63.756 110.627 63.934Z" fill="#E0E0E0"/>
<path id="Vector_14" d="M101.356 56.5266L98.2358 70.3742H97.7158C97.6055 70.374 97.4967 70.3488 97.3975 70.3007C97.2982 70.2526 97.2111 70.1827 97.1427 70.0962C97.0742 70.0097 97.0261 69.9089 97.002 69.8013C96.9779 69.6937 96.9784 69.582 97.0034 69.4746L99.931 57.0882C99.9695 56.9282 100.061 56.7859 100.19 56.684C100.319 56.5821 100.479 56.5267 100.643 56.5266H101.356Z" fill="#E0E0E0"/>
<path id="Vector_15" d="M106.582 70.3741L105.966 73.3147H107.773L108.389 70.3741H106.582Z" fill="#E0E0E0"/>
<path id="Vector_16" d="M103.329 72.8181L103.698 72.2981C103.763 72.2063 103.85 72.1314 103.95 72.0798C104.05 72.0282 104.16 72.0014 104.273 72.0017H109.229C109.357 72.0017 109.483 72.0368 109.593 72.1032C109.703 72.1697 109.793 72.2649 109.853 72.3787L110.113 72.8571C110.139 72.9081 110.152 72.965 110.15 73.0223C110.147 73.0796 110.131 73.1354 110.101 73.1844C110.071 73.2334 110.03 73.274 109.98 73.3023C109.93 73.3306 109.874 73.3456 109.816 73.3459H103.602C103.541 73.3465 103.48 73.33 103.427 73.2983C103.374 73.2665 103.332 73.2207 103.303 73.166C103.275 73.1113 103.262 73.0498 103.267 72.9884C103.272 72.927 103.293 72.868 103.329 72.8181Z" fill="#E0E0E0"/>
<path id="Vector_17" d="M95.9634 33.488L95.8152 33.2514L104.52 27.7654L113.014 33.3736L112.858 33.6076L104.517 28.0982L95.9634 33.488Z" fill="#F0F0F0"/>
<path id="Vector_18" d="M113.199 33.2644H95.6644V44.2312H113.199V33.2644Z" fill="#E0E0E0"/>
<path id="Vector_19" d="M112.713 43.745V33.7506H96.1506V43.745H112.713Z" fill="white"/>
<path id="Vector_20" d="M98.5036 36.8835H97.4454V37.9417H98.5036V36.8835Z" fill="#F0F0F0"/>
<path id="Vector_21" d="M100.136 36.8835H99.0782V37.9417H100.136V36.8835Z" fill="#F0F0F0"/>
<path id="Vector_22" d="M101.767 36.8835H100.708V37.9417H101.767V36.8835Z" fill="#F0F0F0"/>
<path id="Vector_23" d="M103.399 36.8835H102.341V37.9417H103.399V36.8835Z" fill="#F0F0F0"/>
<path id="Vector_24" d="M105.03 36.8835H103.971V37.9417H105.03V36.8835Z" fill="#F0F0F0"/>
<path id="Vector_25" d="M106.662 36.8835H105.604V37.9417H106.662V36.8835Z" fill="#F0F0F0"/>
<path id="Vector_26" d="M108.293 36.8835H107.234V37.9417H108.293V36.8835Z" fill="#F0F0F0"/>
<path id="Vector_27" d="M109.925 36.8835H108.867V37.9417H109.925V36.8835Z" fill="#F0F0F0"/>
<path id="Vector_28" d="M111.556 36.8835H110.497V37.9417H111.556V36.8835Z" fill="#F0F0F0"/>
<path id="Vector_29" d="M98.5036 38.3396H97.4454V39.3978H98.5036V38.3396Z" fill="#F0F0F0"/>
<path id="Vector_30" d="M100.136 38.3396H99.0782V39.3978H100.136V38.3396Z" fill="#F0F0F0"/>
<path id="Vector_31" d="M101.767 38.3396H100.708V39.3978H101.767V38.3396Z" fill="#F0F0F0"/>
<path id="Vector_32" d="M103.399 38.3396H102.341V39.3978H103.399V38.3396Z" fill="#F0F0F0"/>
<path id="Vector_33" d="M105.03 38.3396H103.971V39.3978H105.03V38.3396Z" fill="#F0F0F0"/>
<path id="Vector_34" d="M106.662 38.3396H105.604V39.3978H106.662V38.3396Z" fill="#F0F0F0"/>
<path id="Vector_35" d="M108.293 38.3396H107.234V39.3978H108.293V38.3396Z" fill="#F0F0F0"/>
<path id="Vector_36" d="M109.925 38.3396H108.867V39.3978H109.925V38.3396Z" fill="#F0F0F0"/>
<path id="Vector_37" d="M111.556 38.3396H110.497V39.3978H111.556V38.3396Z" fill="#F0F0F0"/>
<path id="Vector_38" d="M98.5036 39.7955H97.4454V40.8537H98.5036V39.7955Z" fill="#F0F0F0"/>
<path id="Vector_39" d="M100.136 39.7955H99.0782V40.8537H100.136V39.7955Z" fill="#F0F0F0"/>
<path id="Vector_40" d="M101.767 39.7955H100.708V40.8537H101.767V39.7955Z" fill="#F0F0F0"/>
<path id="Vector_41" d="M103.399 39.7955H102.341V40.8537H103.399V39.7955Z" fill="#F0F0F0"/>
<path id="Vector_42" d="M105.03 39.7955H103.971V40.8537H105.03V39.7955Z" fill="#F0F0F0"/>
<path id="Vector_43" d="M106.662 39.7955H105.604V40.8537H106.662V39.7955Z" fill="#F0F0F0"/>
<path id="Vector_44" d="M108.293 39.7955H107.234V40.8537H108.293V39.7955Z" fill="#F0F0F0"/>
<path id="Vector_45" d="M109.925 39.7955H108.867V40.8537H109.925V39.7955Z" fill="#F0F0F0"/>
<path id="Vector_46" d="M111.556 39.7955H110.497V40.8537H111.556V39.7955Z" fill="#F0F0F0"/>
<path id="Vector_47" d="M98.5036 41.3634H97.4454V42.4216H98.5036V41.3634Z" fill="#F0F0F0"/>
<path id="Vector_48" d="M100.136 41.3634H99.0782V42.4216H100.136V41.3634Z" fill="#F0F0F0"/>
<path id="Vector_49" d="M101.767 41.3634H100.708V42.4216H101.767V41.3634Z" fill="#F0F0F0"/>
<path id="Vector_50" d="M103.399 41.3634H102.341V42.4216H103.399V41.3634Z" fill="#F0F0F0"/>
<path id="Vector_51" d="M109.208 34.7281H99.7932V35.6433H109.208V34.7281Z" fill="#E0E0E0"/>
<path id="Vector_52" d="M105.079 27.8641C105.079 27.967 105.049 28.0675 104.991 28.153C104.934 28.2385 104.853 28.3052 104.758 28.3445C104.663 28.3839 104.558 28.3942 104.458 28.3741C104.357 28.3541 104.264 28.3045 104.191 28.2318C104.119 28.1591 104.069 28.0664 104.049 27.9656C104.029 27.8647 104.039 27.7601 104.079 27.6651C104.118 27.5701 104.185 27.4889 104.27 27.4318C104.356 27.3746 104.456 27.3441 104.559 27.3441C104.697 27.3441 104.829 27.3989 104.927 27.4964C105.024 27.5939 105.079 27.7262 105.079 27.8641Z" fill="#E0E0E0"/>
<path id="Vector_53" d="M89.2164 22.4666H70.9332V66.8876H89.2164V22.4666Z" fill="#F0F0F0"/>
<path id="Vector_54" d="M88.101 23.5846H72.0486V65.7748H88.101V23.5846Z" fill="#FAFAFA"/>
<path id="Vector_55" d="M88.101 25.3916V28.5766L72.0486 44.6316V41.444L88.101 25.3916Z" fill="white"/>
<path id="Vector_56" d="M88.101 36.4077V40.9005L72.0486 56.9503V52.4549L88.101 36.4077Z" fill="white"/>
<path id="Vector_57" d="M80.6286 22.4666H79.5236V66.8876H80.6286V22.4666Z" fill="#F0F0F0"/>
<path id="Vector_58" d="M57.0804 22.4666H38.7972V66.8876H57.0804V22.4666Z" fill="#F0F0F0"/>
<path id="Vector_59" d="M55.965 23.5846H39.9126V65.7748H55.965V23.5846Z" fill="#FAFAFA"/>
<path id="Vector_60" d="M55.965 25.3916V28.5766L39.9126 44.6316V41.444L55.965 25.3916Z" fill="white"/>
<path id="Vector_61" d="M55.965 36.4077V40.9005L39.9126 56.9503V52.4549L55.965 36.4077Z" fill="white"/>
<path id="Vector_62" d="M48.49 22.4666H47.385V66.8876H48.49V22.4666Z" fill="#F0F0F0"/>
<path id="Vector_63" d="M44.4964 100.721C44.4964 100.721 42.2864 101.213 42.614 99.6814C42.9416 98.15 42.9182 97.5702 42.0212 96.8708C41.1242 96.1714 40.2194 95.8308 40.9058 94.7128C41.5922 93.5948 40.2896 92.742 39.6058 92.144C38.922 91.546 39.6942 91.104 39.8658 89.9678C40.0374 88.8316 38.8258 89.0084 38.7322 87.5862C38.6386 86.164 40.0816 84.5026 38.8414 82.5448C38.8414 82.5448 40.508 83.4106 41.0566 84.929C41.6052 86.4474 41.1632 87.6226 42.1486 88.1998C43.134 88.777 43.7502 89.778 43.4148 90.7998C43.0794 91.8216 43.5552 92.3598 44.3638 93.1164C45.1724 93.873 44.9566 94.1564 44.8578 95.0768C44.759 95.9972 44.9592 95.7762 45.8822 97.0242C46.8052 98.2722 46.8468 100.313 44.4964 100.721Z" fill="#F0F0F0"/>
<path id="Vector_64" d="M44.811 100.654C44.8102 100.646 44.8102 100.638 44.811 100.63L40.391 87.2092C40.3866 87.1955 40.3848 87.1811 40.3859 87.1668C40.3871 87.1524 40.391 87.1385 40.3975 87.1257C40.404 87.1129 40.413 87.1015 40.424 87.0922C40.4349 87.0828 40.4475 87.0758 40.4612 87.0714C40.4747 87.0669 40.4889 87.0652 40.5031 87.0664C40.5172 87.0675 40.531 87.0715 40.5436 87.078C40.5562 87.0846 40.5673 87.0936 40.5764 87.1045C40.5855 87.1154 40.5923 87.128 40.5964 87.1416L45.0164 100.56C45.0175 100.571 45.0175 100.583 45.0164 100.594L44.811 100.654Z" fill="#E0E0E0"/>
<path id="Vector_65" d="M48.4822 100.695C48.4822 100.695 50.6818 101.182 50.3542 99.6553C50.0266 98.1291 50.0526 97.5571 50.9444 96.8603C51.8362 96.1635 52.7384 95.8203 52.052 94.7153C51.3656 93.6103 52.6682 92.7523 53.352 92.1595C54.0358 91.5667 53.2636 91.1195 53.092 89.9937C52.9204 88.8679 54.132 89.0395 54.2178 87.6251C54.3036 86.2107 52.8762 84.5571 54.1112 82.6097C54.1112 82.6097 52.4524 83.4703 51.9064 84.9835C51.3604 86.4967 51.7998 87.6615 50.8196 88.2361C49.8394 88.8107 49.2258 89.7961 49.5612 90.8361C49.8966 91.8761 49.4208 92.3961 48.6174 93.1397C47.814 93.8833 48.0272 94.1797 48.126 95.0897C48.2248 95.9997 48.0246 95.7839 47.1068 97.0267C46.189 98.2695 46.1448 100.287 48.4822 100.695Z" fill="#F0F0F0"/>
<path id="Vector_66" d="M47.9674 100.568C47.9659 100.557 47.9659 100.545 47.9674 100.534L52.3666 87.1857C52.3707 87.1722 52.3775 87.1596 52.3866 87.1487C52.3957 87.1377 52.4068 87.1288 52.4194 87.1222C52.432 87.1157 52.4458 87.1117 52.4599 87.1106C52.4741 87.1094 52.4883 87.1111 52.5018 87.1155C52.5155 87.12 52.5281 87.127 52.5391 87.1364C52.55 87.1457 52.559 87.1571 52.5655 87.1699C52.572 87.1827 52.5759 87.1966 52.5771 87.211C52.5782 87.2253 52.5764 87.2397 52.572 87.2533L48.1728 100.602C48.1742 100.61 48.1742 100.619 48.1728 100.628L47.9674 100.568Z" fill="#E0E0E0"/>
<path id="Vector_67" d="M46.0434 100.415C46.0434 100.415 43.5136 100.207 44.3768 98.6648C45.24 97.123 45.4038 96.5042 44.6732 95.4564C43.9426 94.4086 43.0924 93.7352 44.1974 92.7758C45.3024 91.8164 44.1974 90.4592 43.6774 89.596C43.1574 88.7328 44.1194 88.5014 44.6836 87.3522C45.2478 86.203 43.9036 85.982 44.2624 84.4272C44.6212 82.8724 46.7324 81.5672 46.0538 79.0634C46.0538 79.0634 47.5514 80.5428 47.6346 82.3524C47.7178 84.162 46.8546 85.2722 47.7178 86.2186C48.581 87.165 48.9086 88.439 48.2092 89.427C47.5098 90.415 47.84 91.1534 48.4692 92.222C49.0984 93.2906 48.7578 93.5402 48.347 94.484C47.9362 95.4278 48.2222 95.264 48.7994 96.9124C49.3766 98.5608 48.6954 100.758 46.0434 100.415Z" fill="#F5F5F5"/>
<path id="Vector_68" d="M46.4022 100.446C46.4007 100.436 46.4007 100.427 46.4022 100.417L46.124 84.5754C46.1236 84.5591 46.1265 84.5429 46.1325 84.5278C46.1385 84.5127 46.1475 84.4989 46.1589 84.4873C46.1702 84.4756 46.1838 84.4664 46.1988 84.4601C46.2138 84.4538 46.2299 84.4506 46.2462 84.4506C46.2782 84.4506 46.3088 84.4631 46.3317 84.4854C46.3545 84.5078 46.3677 84.5382 46.3684 84.5702L46.6466 100.412C46.6491 100.425 46.6491 100.438 46.6466 100.451L46.4022 100.446Z" fill="#E0E0E0"/>
<path id="Vector_69" d="M52.9282 99.1926H40.56C40.4787 99.1948 40.3989 99.2161 40.3273 99.2548C40.2557 99.2934 40.1941 99.3483 40.1476 99.4151C40.1011 99.4819 40.0708 99.5586 40.0594 99.6392C40.0479 99.7198 40.0555 99.8019 40.0816 99.879L40.2662 100.365L40.3806 100.675L40.7134 101.556L40.8304 101.863L41.171 102.768L41.2854 103.074L42.6478 106.688H50.8404L52.2028 103.074L52.3172 102.768L52.6578 101.863L52.7748 101.556L53.1076 100.675L53.222 100.365L53.4066 99.879C53.4327 99.8019 53.4403 99.7198 53.4288 99.6392C53.4174 99.5586 53.3872 99.4819 53.3406 99.4151C53.2941 99.3483 53.2325 99.2934 53.1609 99.2548C53.0893 99.2161 53.0096 99.1948 52.9282 99.1926Z" fill="#E6E6E6"/>
<path id="Vector_70" d="M23.3766 33.3814C25.8392 33.3814 27.8356 31.385 27.8356 28.9224C27.8356 26.4597 25.8392 24.4634 23.3766 24.4634C20.914 24.4634 18.9176 26.4597 18.9176 28.9224C18.9176 31.385 20.914 33.3814 23.3766 33.3814Z" fill="#E0E0E0"/>
<path id="Vector_71" d="M27.4306 29.6072C27.8063 27.3697 26.2969 25.2514 24.0595 24.8757C21.822 24.5001 19.7037 26.0094 19.328 28.2469C18.9524 30.4844 20.4617 32.6027 22.6992 32.9784C24.9367 33.354 27.055 31.8447 27.4306 29.6072Z" fill="#FAFAFA"/>
<path id="Vector_72" d="M23.3896 25.1862H23.2362V26.0442H23.3896V25.1862Z" fill="#E0E0E0"/>
<path id="Vector_73" d="M23.3896 31.7772H23.2362V32.6352H23.3896V31.7772Z" fill="#E0E0E0"/>
<path id="Vector_74" d="M20.4464 28.834H19.5884V28.9874H20.4464V28.834Z" fill="#E0E0E0"/>
<path id="Vector_75" d="M27.0374 28.834H26.1794V28.9874H27.0374V28.834Z" fill="#E0E0E0"/>
<path id="Vector_76" d="M25.8937 26.2207L25.2871 26.8275L25.3956 26.936L26.0022 26.3292L25.8937 26.2207Z" fill="#E0E0E0"/>
<path id="Vector_77" d="M21.2312 30.8798L20.6246 31.4866L20.7331 31.595L21.3397 30.9882L21.2312 30.8798Z" fill="#E0E0E0"/>
<path id="Vector_78" d="M20.7341 26.226L20.6256 26.3345L21.2323 26.9412L21.3408 26.8327L20.7341 26.226Z" fill="#E0E0E0"/>
<path id="Vector_79" d="M25.3939 30.8816L25.2854 30.9901L25.8922 31.5967L26.0007 31.4882L25.3939 30.8816Z" fill="#E0E0E0"/>
<path id="Vector_80" d="M23.2837 28.8063L23.2351 28.9297L24.6867 29.5012L24.7352 29.3778L23.2837 28.8063Z" fill="#E0E0E0"/>
<path id="Vector_81" d="M23.3792 28.977H20.982V28.8444H23.2466V26.9854H23.3792V28.977Z" fill="#E0E0E0"/>
</g>
<g id="freepik--Shadow--inject-53">
<path id="Vector_82" d="M121.612 118.498C121.612 119.187 96.356 119.743 65.2054 119.743C34.0548 119.743 8.7984 119.187 8.7984 118.498C8.7984 117.809 34.06 117.26 65.2054 117.26C96.3508 117.26 121.612 117.811 121.612 118.498Z" fill="#F5F5F5"/>
</g>
<g id="freepik--Symbol--inject-53">
<path id="Vector_83" d="M55.0836 29.2156C56.7102 27.589 56.7102 24.9518 55.0836 23.3251C53.457 21.6985 50.8197 21.6985 49.1931 23.3251C47.5665 24.9518 47.5665 27.589 49.1931 29.2156C50.8197 30.8422 53.457 30.8422 55.0836 29.2156Z" fill="#F9800F"/>
<path id="Vector_84" d="M54.2256 26.26C54.2249 26.3529 54.1877 26.4418 54.122 26.5075C54.0563 26.5731 53.9674 26.6103 53.8746 26.611H52.4862V27.9994C52.4786 28.087 52.4385 28.1685 52.3737 28.2279C52.309 28.2873 52.2243 28.3202 52.1365 28.3202C52.0486 28.3202 51.9639 28.2873 51.8992 28.2279C51.8344 28.1685 51.7943 28.087 51.7868 27.9994V26.611H50.3984C50.3055 26.6103 50.2166 26.5731 50.1509 26.5075C50.0852 26.4418 50.048 26.3529 50.0474 26.26C50.048 26.1671 50.0852 26.0783 50.1509 26.0126C50.2166 25.9469 50.3055 25.9097 50.3984 25.909H51.7868V24.531C51.7943 24.4435 51.8344 24.362 51.8992 24.3026C51.9639 24.2432 52.0486 24.2102 52.1365 24.2102C52.2243 24.2102 52.309 24.2432 52.3737 24.3026C52.4385 24.362 52.4786 24.4435 52.4862 24.531V25.9194H53.8746C53.9657 25.92 54.053 25.9558 54.1184 26.0193C54.1838 26.0827 54.2222 26.169 54.2256 26.26Z" fill="white"/>
<path id="Vector_85" d="M52.1378 31.4912C52.1213 31.4915 52.1049 31.4886 52.0896 31.4824C52.0743 31.4763 52.0604 31.4671 52.0487 31.4554C52.0371 31.4438 52.0279 31.4299 52.0217 31.4146C52.0156 31.3993 52.0126 31.3829 52.013 31.3664V31.1064C52.0104 31.0887 52.0116 31.0706 52.0167 31.0534C52.0217 31.0362 52.0304 31.0203 52.0421 31.0068C52.0538 30.9932 52.0683 30.9824 52.0846 30.9749C52.1009 30.9675 52.1185 30.9636 52.1365 30.9636C52.1544 30.9636 52.1721 30.9675 52.1883 30.9749C52.2046 30.9824 52.2191 30.9932 52.2308 31.0068C52.2426 31.0203 52.2512 31.0362 52.2562 31.0534C52.2613 31.0706 52.2625 31.0887 52.26 31.1064V31.3664C52.2603 31.3827 52.2574 31.3988 52.2514 31.414C52.2454 31.4291 52.2365 31.4429 52.2251 31.4545C52.2137 31.4661 52.2001 31.4753 52.1851 31.4816C52.1701 31.4879 52.154 31.4912 52.1378 31.4912ZM52.26 37.3282V36.8316C52.2625 36.8139 52.2613 36.7958 52.2562 36.7786C52.2512 36.7614 52.2426 36.7455 52.2308 36.732C52.2191 36.7184 52.2046 36.7076 52.1883 36.7001C52.1721 36.6927 52.1544 36.6888 52.1365 36.6888C52.1185 36.6888 52.1009 36.6927 52.0846 36.7001C52.0683 36.7076 52.0538 36.7184 52.0421 36.732C52.0304 36.7455 52.0217 36.7614 52.0167 36.7786C52.0116 36.7958 52.0104 36.8139 52.013 36.8316V37.3282C52.0173 37.3579 52.0321 37.385 52.0548 37.4046C52.0775 37.4242 52.1065 37.435 52.1365 37.435C52.1664 37.435 52.1954 37.4242 52.2181 37.4046C52.2408 37.385 52.2556 37.3579 52.26 37.3282ZM52.26 35.8384V35.3418C52.2625 35.3241 52.2613 35.306 52.2562 35.2888C52.2512 35.2716 52.2426 35.2557 52.2308 35.2422C52.2191 35.2286 52.2046 35.2178 52.1883 35.2103C52.1721 35.2029 52.1544 35.199 52.1365 35.199C52.1185 35.199 52.1009 35.2029 52.0846 35.2103C52.0683 35.2178 52.0538 35.2286 52.0421 35.2422C52.0304 35.2557 52.0217 35.2716 52.0167 35.2888C52.0116 35.306 52.0104 35.3241 52.013 35.3418V35.8384C52.0173 35.8681 52.0321 35.8952 52.0548 35.9148C52.0775 35.9344 52.1065 35.9452 52.1365 35.9452C52.1664 35.9452 52.1954 35.9344 52.2181 35.9148C52.2408 35.8952 52.2556 35.8681 52.26 35.8384ZM52.26 34.3486V33.852C52.2625 33.8343 52.2613 33.8162 52.2562 33.799C52.2512 33.7818 52.2426 33.7659 52.2308 33.7524C52.2191 33.7388 52.2046 33.728 52.1883 33.7205C52.1721 33.7131 52.1544 33.7092 52.1365 33.7092C52.1185 33.7092 52.1009 33.7131 52.0846 33.7205C52.0683 33.728 52.0538 33.7388 52.0421 33.7524C52.0304 33.7659 52.0217 33.7818 52.0167 33.799C52.0116 33.8162 52.0104 33.8343 52.013 33.852V34.3486C52.0173 34.3783 52.0321 34.4054 52.0548 34.425C52.0775 34.4446 52.1065 34.4554 52.1365 34.4554C52.1664 34.4554 52.1954 34.4446 52.2181 34.425C52.2408 34.4054 52.2556 34.3783 52.26 34.3486ZM52.26 32.8588V32.3596C52.2556 32.3299 52.2408 32.3028 52.2181 32.2832C52.1954 32.2636 52.1664 32.2528 52.1365 32.2528C52.1065 32.2528 52.0775 32.2636 52.0548 32.2832C52.0321 32.3028 52.0173 32.3299 52.013 32.3596V32.8588C52.0173 32.8885 52.0321 32.9156 52.0548 32.9352C52.0775 32.9548 52.1065 32.9656 52.1365 32.9656C52.1664 32.9656 52.1954 32.9548 52.2181 32.9352C52.2408 32.9156 52.2556 32.8885 52.26 32.8588ZM52.52 38.5788C52.52 38.5457 52.5068 38.5139 52.4834 38.4905C52.46 38.4671 52.4283 38.454 52.3952 38.454H52.26V38.3318C52.2625 38.3141 52.2613 38.296 52.2562 38.2788C52.2512 38.2616 52.2426 38.2457 52.2308 38.2322C52.2191 38.2186 52.2046 38.2078 52.1883 38.2003C52.1721 38.1929 52.1544 38.189 52.1365 38.189C52.1185 38.189 52.1009 38.1929 52.0846 38.2003C52.0683 38.2078 52.0538 38.2186 52.0421 38.2322C52.0304 38.2457 52.0217 38.2616 52.0167 38.2788C52.0116 38.296 52.0104 38.3141 52.013 38.3318V38.5918C52.0126 38.6083 52.0156 38.6247 52.0217 38.64C52.0279 38.6553 52.0371 38.6692 52.0487 38.6808C52.0604 38.6925 52.0743 38.7017 52.0896 38.7078C52.1049 38.714 52.1213 38.7169 52.1378 38.7166H52.3848C52.4043 38.7192 52.4242 38.717 52.4427 38.7102C52.4612 38.7035 52.4778 38.6924 52.4911 38.6778C52.5043 38.6632 52.5139 38.6457 52.5189 38.6266C52.524 38.6076 52.5243 38.5876 52.52 38.5684V38.5788ZM58.1672 38.5788C58.1672 38.5457 58.154 38.5139 58.1306 38.4905C58.1072 38.4671 58.0755 38.454 58.0424 38.454H57.5718C57.5389 38.4547 57.5075 38.468 57.4842 38.4913C57.461 38.5145 57.4476 38.5459 57.447 38.5788C57.447 38.6119 57.4601 38.6436 57.4835 38.667C57.5069 38.6904 57.5387 38.7036 57.5718 38.7036H58.0424C58.0589 38.7026 58.0751 38.6983 58.0899 38.6909C58.1047 38.6835 58.1179 38.6732 58.1286 38.6605C58.1393 38.6479 58.1473 38.6332 58.1521 38.6174C58.157 38.6015 58.1585 38.5849 58.1568 38.5684L58.1672 38.5788ZM56.7554 38.5788C56.7554 38.5457 56.7422 38.5139 56.7188 38.4905C56.6954 38.4671 56.6637 38.454 56.6306 38.454H56.16C56.1271 38.4547 56.0957 38.468 56.0724 38.4913C56.0492 38.5145 56.0358 38.5459 56.0352 38.5788C56.0352 38.6119 56.0483 38.6436 56.0717 38.667C56.0951 38.6904 56.1269 38.7036 56.16 38.7036H56.6306C56.6471 38.7026 56.6633 38.6983 56.6781 38.6909C56.6929 38.6835 56.7061 38.6732 56.7168 38.6605C56.7275 38.6479 56.7355 38.6332 56.7403 38.6174C56.7452 38.6015 56.7467 38.5849 56.745 38.5684L56.7554 38.5788ZM55.3436 38.5788C55.3436 38.5457 55.3304 38.5139 55.307 38.4905C55.2836 38.4671 55.2519 38.454 55.2188 38.454H54.7482C54.7153 38.4547 54.6839 38.468 54.6606 38.4913C54.6374 38.5145 54.624 38.5459 54.6234 38.5788C54.6234 38.6119 54.6365 38.6436 54.6599 38.667C54.6833 38.6904 54.7151 38.7036 54.7482 38.7036H55.2188C55.2353 38.7026 55.2515 38.6983 55.2663 38.6909C55.2811 38.6835 55.2943 38.6732 55.305 38.6605C55.3157 38.6479 55.3237 38.6332 55.3285 38.6174C55.3334 38.6015 55.3349 38.5849 55.3332 38.5684L55.3436 38.5788ZM53.9318 38.5788C53.9318 38.5457 53.9186 38.5139 53.8952 38.4905C53.8718 38.4671 53.8401 38.454 53.807 38.454H53.326C53.2931 38.4547 53.2617 38.468 53.2384 38.4913C53.2152 38.5145 53.2018 38.5459 53.2012 38.5788C53.2012 38.6119 53.2143 38.6436 53.2377 38.667C53.2611 38.6904 53.2929 38.7036 53.326 38.7036H53.7966C53.814 38.7041 53.8313 38.7008 53.8474 38.694C53.8634 38.6873 53.8778 38.6771 53.8896 38.6643C53.9015 38.6515 53.9104 38.6363 53.9159 38.6198C53.9214 38.6032 53.9232 38.5857 53.9214 38.5684L53.9318 38.5788ZM59.358 38.5788C59.3573 38.5459 59.3439 38.5145 59.3207 38.4913C59.2974 38.468 59.266 38.4547 59.2332 38.454H58.9732C58.9405 38.4547 58.9094 38.4681 58.8866 38.4915C58.8637 38.5148 58.851 38.5461 58.851 38.5788C58.8506 38.5951 58.8535 38.6112 58.8595 38.6264C58.8655 38.6415 58.8744 38.6553 58.8858 38.6669C58.8972 38.6785 58.9108 38.6877 58.9258 38.694C58.9408 38.7003 58.9569 38.7036 58.9732 38.7036H59.2332C59.2496 38.7023 59.2656 38.6977 59.2802 38.6902C59.2948 38.6827 59.3079 38.6724 59.3185 38.6598C59.3291 38.6472 59.3372 38.6327 59.3422 38.617C59.3471 38.6013 59.349 38.5848 59.3476 38.5684L59.358 38.5788Z" fill="#F9800F"/>
</g>
<g id="freepik--character-3--inject-53">
<path id="Vector_86" d="M106.187 112.32L106.449 116.498L104.666 116.639L103.47 112.531L106.187 112.32Z" fill="#CE7A63"/>
<path id="Vector_87" d="M105.082 116.22C105.01 116.129 104.913 116.06 104.804 116.021C104.695 115.981 104.576 115.974 104.463 115.999C104.117 116.113 103.662 116.68 103.662 116.68C103.662 116.68 101.785 117.283 101.278 117.315C100.771 117.346 100.435 117.671 100.394 118.615H106.782C106.782 118.615 106.782 116.399 106.566 116.015C106.379 115.682 106.002 116.111 106.002 116.111L105.082 116.22Z" fill="#263238"/>
<path id="Vector_88" d="M100.539 118.326L101.65 118.313L106.496 118.264C106.507 118.261 106.517 118.255 106.523 118.246C106.53 118.238 106.534 118.227 106.534 118.216C106.534 118.204 106.53 118.194 106.523 118.185C106.517 118.176 106.507 118.17 106.496 118.167H106.166C106.066 117.928 106.063 117.66 106.155 117.418C106.247 117.177 106.429 116.979 106.662 116.867C106.668 116.865 106.674 116.861 106.678 116.856C106.682 116.851 106.685 116.845 106.687 116.839C106.689 116.833 106.69 116.826 106.689 116.82C106.689 116.813 106.686 116.807 106.683 116.801C106.68 116.796 106.676 116.791 106.67 116.787C106.665 116.783 106.659 116.781 106.653 116.779C106.646 116.778 106.64 116.778 106.633 116.779C106.627 116.78 106.621 116.783 106.616 116.787C106.366 116.908 106.171 117.118 106.07 117.377C105.969 117.635 105.969 117.922 106.07 118.18H105.386L100.539 118.232C100.53 118.236 100.521 118.242 100.515 118.25C100.509 118.259 100.506 118.269 100.506 118.279C100.506 118.29 100.509 118.3 100.515 118.308C100.521 118.316 100.53 118.323 100.539 118.326Z" fill="white"/>
<path id="Vector_89" d="M103.88 117.07C103.837 116.998 103.778 116.936 103.708 116.888C103.639 116.84 103.56 116.808 103.477 116.793C103.394 116.778 103.308 116.78 103.226 116.801C103.144 116.821 103.068 116.859 103.002 116.912C102.952 116.948 102.905 116.865 102.955 116.828C103.032 116.77 103.121 116.728 103.215 116.706C103.309 116.684 103.407 116.682 103.502 116.7C103.597 116.718 103.687 116.756 103.767 116.812C103.846 116.867 103.913 116.938 103.964 117.021C103.997 117.07 103.917 117.12 103.88 117.07Z" fill="white"/>
<path id="Vector_90" d="M103.35 117.229C103.306 117.157 103.247 117.095 103.178 117.047C103.108 117 103.029 116.967 102.946 116.953C102.863 116.938 102.778 116.94 102.696 116.961C102.614 116.981 102.538 117.018 102.471 117.07C102.422 117.107 102.375 117.023 102.424 116.987C102.502 116.929 102.59 116.887 102.685 116.865C102.779 116.844 102.877 116.842 102.972 116.86C103.067 116.878 103.157 116.917 103.237 116.972C103.316 117.028 103.383 117.099 103.433 117.182C103.467 117.231 103.386 117.278 103.35 117.229Z" fill="white"/>
<path id="Vector_91" d="M102.804 117.39C102.76 117.318 102.702 117.256 102.632 117.208C102.562 117.16 102.483 117.127 102.4 117.112C102.317 117.097 102.232 117.1 102.15 117.121C102.068 117.141 101.991 117.179 101.925 117.231C101.876 117.268 101.829 117.185 101.876 117.148C101.953 117.09 102.042 117.048 102.136 117.026C102.23 117.004 102.328 117.002 102.423 117.02C102.518 117.038 102.608 117.076 102.688 117.131C102.767 117.187 102.834 117.258 102.885 117.341C102.921 117.39 102.838 117.439 102.804 117.39Z" fill="white"/>
<path id="Vector_92" d="M92.5288 112.276L92.2818 116.496L90.4826 116.639L89.7858 112.489L92.5288 112.276Z" fill="#CE7A63"/>
<path id="Vector_93" d="M90.8959 116.22C90.824 116.129 90.7277 116.06 90.6183 116.021C90.5089 115.982 90.3906 115.974 90.2771 115.999C89.9313 116.113 89.4764 116.68 89.4764 116.68C89.4764 116.68 87.5991 117.283 87.0921 117.315C86.5851 117.346 86.1405 117.632 85.9507 118.615H92.1023C92.1023 118.615 92.3441 116.394 92.3805 116.015C92.4169 115.635 91.8164 116.111 91.8164 116.111L90.8959 116.22Z" fill="#263238"/>
<path id="Vector_94" d="M86.1328 118.326L87.2404 118.313L92.0868 118.264C92.0977 118.261 92.1073 118.255 92.1143 118.246C92.1212 118.238 92.1249 118.227 92.1249 118.216C92.1249 118.204 92.1212 118.194 92.1143 118.185C92.1073 118.176 92.0977 118.17 92.0868 118.167H91.7592C91.6601 117.928 91.6566 117.66 91.7494 117.418C91.8423 117.176 92.0245 116.979 92.2584 116.867C92.2643 116.865 92.2696 116.861 92.2739 116.856C92.2782 116.851 92.2814 116.845 92.2834 116.839C92.2853 116.833 92.286 116.826 92.2852 116.82C92.2845 116.813 92.2825 116.807 92.2792 116.801C92.2759 116.796 92.2715 116.791 92.2663 116.787C92.261 116.783 92.255 116.781 92.2486 116.779C92.2423 116.778 92.2357 116.778 92.2293 116.779C92.2229 116.78 92.2169 116.783 92.2116 116.787C91.9619 116.908 91.7671 117.118 91.6659 117.377C91.5646 117.635 91.5646 117.922 91.6656 118.18H90.9818L86.1354 118.232C86.1255 118.235 86.1168 118.242 86.1106 118.25C86.1043 118.258 86.1008 118.268 86.1005 118.278C86.1002 118.289 86.1032 118.299 86.109 118.307C86.1148 118.316 86.1231 118.322 86.1328 118.326Z" fill="white"/>
<path id="Vector_95" d="M89.7 117.07C89.6562 116.998 89.5976 116.936 89.528 116.888C89.4584 116.84 89.3795 116.808 89.2964 116.793C89.2132 116.778 89.1279 116.78 89.046 116.801C88.964 116.821 88.8874 116.859 88.8212 116.912C88.7718 116.948 88.725 116.865 88.7744 116.828C88.8515 116.77 88.9401 116.728 89.0344 116.706C89.1286 116.684 89.2265 116.682 89.3215 116.7C89.4166 116.718 89.5069 116.756 89.5864 116.812C89.6659 116.867 89.7329 116.938 89.7832 117.021C89.8196 117.07 89.7364 117.12 89.7 117.07Z" fill="white"/>
<path id="Vector_96" d="M89.1644 117.229C89.1206 117.157 89.0621 117.095 88.9928 117.048C88.9234 117 88.8447 116.968 88.7619 116.953C88.6791 116.938 88.5941 116.94 88.5124 116.961C88.4308 116.981 88.3544 117.018 88.2882 117.07C88.2388 117.107 88.1894 117.023 88.2388 116.987C88.3161 116.929 88.4048 116.887 88.4992 116.865C88.5936 116.844 88.6915 116.842 88.7866 116.86C88.8817 116.878 88.9719 116.917 89.0513 116.972C89.1307 117.028 89.1976 117.099 89.2476 117.182C89.284 117.231 89.2008 117.278 89.1644 117.229Z" fill="white"/>
<path id="Vector_97" d="M88.6184 117.39C88.5746 117.318 88.516 117.256 88.4464 117.208C88.3769 117.16 88.2979 117.127 88.2148 117.112C88.1316 117.097 88.0463 117.1 87.9644 117.121C87.8824 117.141 87.8058 117.179 87.7396 117.231C87.6902 117.268 87.6434 117.185 87.6928 117.148C87.7699 117.09 87.8585 117.048 87.9528 117.026C88.047 117.004 88.1449 117.002 88.2399 117.02C88.335 117.038 88.4252 117.076 88.5048 117.131C88.5843 117.187 88.6513 117.258 88.7016 117.341C88.7354 117.39 88.6548 117.439 88.6184 117.39Z" fill="white"/>
<path id="Vector_98" d="M88.3376 68.2916C88.3376 68.2916 87.2976 82.3966 87.3574 88.5924C87.4302 95.0352 89.531 113.789 89.531 113.789H92.9734C92.9734 113.789 93.6078 95.3654 93.9146 89.037C94.25 82.1366 96.3118 67.1606 96.3118 67.1606L88.3376 68.2916Z" fill="#263238"/>
<path id="Vector_99" opacity="0.2" d="M94.5724 81.3618C94.8324 78.8294 95.1522 76.2138 95.433 73.9284L95.03 71.5156C95.03 71.5156 93.6806 75.2804 94.5724 81.3618Z" fill="black"/>
<path id="Vector_100" d="M93.2308 112.746C93.2308 113.118 93.197 113.859 93.197 113.859H89.232L89.1124 112.746H93.2308Z" fill="#F9800F"/>
<path id="Vector_101" d="M94.211 67.1606C94.211 67.1606 95.251 82.6956 96.3794 88.5144C97.6092 94.8818 103.191 113.789 103.191 113.789H106.912C106.912 113.789 104.52 95.446 103.886 89.1384C103.194 82.2952 102.895 68.4736 102.895 68.4736L94.211 67.1606Z" fill="#263238"/>
<path id="Vector_102" d="M107.078 112.72C107.115 113.1 107.172 113.859 107.172 113.859H102.814L102.554 112.72H107.078Z" fill="#F9800F"/>
<path id="Vector_103" d="M103.527 69.797C96.0882 70.304 90.4956 70.343 87.5316 69.225C87.3262 56.1262 87.7916 47.9778 88.4 45.9862C88.4811 45.7206 88.6151 45.4741 88.7938 45.2614C88.9725 45.0488 89.1923 44.8743 89.44 44.7486C90.1748 44.3794 90.9653 44.1334 91.78 44.0206C93.34 43.7892 95.9166 43.7216 97.7028 43.7268C98.683 43.7268 99.6892 43.8048 100.519 43.888C101.559 43.9946 102.222 44.915 102.177 45.9498C102.089 47.9414 102.081 49.9564 102.128 51.9298C102.157 53.0686 102.201 54.1918 102.258 55.2916C102.625 62.3168 103.514 68.2656 103.527 69.797Z" fill="#F9800F"/>
<path id="Vector_104" opacity="0.2" d="M102.253 55.2942L99.06 48.2742L102.123 51.935C102.151 53.0712 102.196 54.1944 102.253 55.2942Z" fill="black"/>
<path id="Vector_105" d="M92.8512 33.5401C92.4586 33.1137 91.1404 33.0773 90.5112 33.8989C89.8404 34.7777 88.9902 36.4001 88.4494 35.9789C88.5296 36.2218 88.6817 36.4346 88.8855 36.5892C89.0893 36.7438 89.3352 36.8328 89.5908 36.8447C89.5908 36.8447 89.0422 37.4453 88.335 37.2243C88.4583 37.5724 88.6771 37.8789 88.9662 38.1088C89.2554 38.3387 89.6033 38.4826 89.9704 38.5243C91.1794 38.7011 92.8642 35.2353 93.132 34.6685C93.132 34.0211 93.08 34.0601 92.8512 33.5401Z" fill="#263238"/>
<path id="Vector_106" d="M93.6 33.683C94.1332 33.6185 94.6741 33.6649 95.1886 33.8193C95.7031 33.9736 96.1802 34.2326 96.59 34.58C97.1256 35.0428 97.5416 35.6512 97.357 36.3792C96.9254 38.0744 95.7814 40.7992 95.7814 40.7992L90.649 36.8498C90.649 36.8498 90.623 35.204 91.4472 34.3876C91.8788 33.9638 92.82 33.7714 93.6 33.683Z" fill="#263238"/>
<path id="Vector_107" d="M92.6614 33.5894C92.6614 33.5894 94.4294 32.3284 96.7824 34.0782C99.1354 35.828 96.7824 38.9948 96.7824 38.9948C96.7824 38.9948 96.0284 40.3962 96.694 40.742C96.4604 40.8325 96.2112 40.8758 95.9608 40.8694C95.9608 40.8694 96.1896 41.2958 96.4808 41.2568C96.4808 41.2568 96.0726 41.4206 95.3498 41.0982C94.627 40.7758 92.6614 33.5894 92.6614 33.5894Z" fill="#263238"/>
<path id="Vector_108" d="M92.7732 42.3254C92.7732 42.3254 92.7732 42.3254 92.7732 42.3488L92.9136 43.3732C92.9106 43.5759 92.8889 43.7778 92.8486 43.9764C92.8158 44.1371 92.7715 44.2953 92.716 44.4496C92.456 44.7226 92.2714 45.3882 93.0488 45.4896C94.029 45.617 96.0024 44.4054 96.122 43.9816C95.8334 42.5854 95.6462 40.9734 95.8776 39.702L94.6114 40.7732L92.7732 42.3254Z" fill="#CE7A63"/>
<path id="Vector_109" opacity="0.2" d="M92.7784 42.3514L92.9188 43.3758C93.5662 43.173 94.2838 42.6478 94.51 42.0134C94.6712 41.5558 94.51 41.0878 94.328 41.041L92.7784 42.3514Z" fill="black"/>
<path id="Vector_110" d="M90.5554 39.962C90.5866 40.1856 90.6256 40.4066 90.6672 40.625C91.0572 42.5568 93.3244 43.0066 94.9156 41.8158C95.0598 41.7078 95.1954 41.5887 95.3212 41.4596C96.3742 40.3806 96.2598 39.4394 96.3794 37.3464C96.4114 36.8608 96.3189 36.3752 96.1108 35.9353C95.9028 35.4954 95.5859 35.1159 95.1902 34.8327C94.7945 34.5495 94.3331 34.3719 93.8497 34.3168C93.3662 34.2616 92.8766 34.3307 92.4274 34.5176C90.5762 35.2768 90.2382 37.7286 90.5554 39.962Z" fill="#CE7A63"/>
<path id="Vector_111" d="M93.0592 38.259C93.0592 38.428 92.976 38.5658 92.8642 38.5684C92.7524 38.571 92.664 38.4332 92.6614 38.2642C92.6588 38.0952 92.7472 37.9574 92.8564 37.9574C92.9656 37.9574 93.0592 38.09 93.0592 38.259Z" fill="#263238"/>
<path id="Vector_112" d="M91.2236 38.2772C91.2236 38.4462 91.1378 38.584 91.0286 38.5866C90.9194 38.5892 90.8258 38.4514 90.8232 38.2824C90.8206 38.1134 90.909 37.9756 91.0208 37.9756C91.1326 37.9756 91.221 38.1082 91.2236 38.2772Z" fill="#263238"/>
<path id="Vector_113" d="M92.3961 40.56H92.3364C92.3203 40.5557 92.3064 40.5456 92.2972 40.5317C92.2881 40.5178 92.2845 40.501 92.287 40.4846C92.2888 40.4762 92.2923 40.4682 92.2972 40.4612C92.3021 40.4542 92.3084 40.4482 92.3157 40.4436C92.3229 40.439 92.331 40.4359 92.3395 40.4345C92.3479 40.433 92.3566 40.4333 92.3649 40.4352C92.4888 40.4594 92.6164 40.4582 92.7398 40.4317C92.8632 40.4052 92.98 40.354 93.083 40.281C93.1861 40.2081 93.2733 40.1151 93.3393 40.0075C93.4054 39.8999 93.4489 39.7801 93.4673 39.6552C93.4692 39.6468 93.4727 39.6388 93.4776 39.6318C93.4825 39.6248 93.4888 39.6188 93.4961 39.6142C93.5033 39.6096 93.5114 39.6065 93.5199 39.6051C93.5283 39.6036 93.537 39.6039 93.5454 39.6058C93.5615 39.6106 93.5752 39.6213 93.5838 39.6357C93.5925 39.6501 93.5955 39.6673 93.5921 39.6838C93.548 39.9577 93.3977 40.2032 93.1739 40.3672C92.95 40.5312 92.6706 40.6004 92.3961 40.56Z" fill="#263238"/>
<path id="Vector_114" d="M96.382 37.5388C96.0803 37.7703 95.8599 38.0917 95.7528 38.4566C95.7497 38.4964 95.7347 38.5344 95.7096 38.5655C95.6845 38.5966 95.6506 38.6193 95.6124 38.6308L94.8532 38.6932C94.8532 38.6932 95.316 36.6756 94.7752 36.634C94.2344 36.5924 94.9312 35.7474 94.6244 35.5732C93.9016 35.165 91.8216 34.8816 90.8622 36.036C90.8622 36.036 91.2314 34.8244 92.3026 34.2836C93.3738 33.7428 95.3784 33.852 96.057 34.9284C96.7356 36.0048 96.382 37.5388 96.382 37.5388Z" fill="#263238"/>
<path id="Vector_115" d="M97.2868 38.7401C97.1404 39.2455 96.8003 39.6726 96.3404 39.9283C95.7268 40.2611 95.264 39.7515 95.3004 39.0911C95.3368 38.4957 95.6982 37.6065 96.3768 37.5467C97.0554 37.4869 97.4558 38.1187 97.2816 38.7401" fill="#CE7A63"/>
<path id="Vector_116" d="M90.7218 37.5778C90.7362 37.5781 90.7504 37.5743 90.7628 37.567C90.7752 37.5596 90.7853 37.549 90.792 37.5362C90.8177 37.4829 90.8541 37.4353 90.8988 37.3964C90.9435 37.3575 90.9956 37.3281 91.052 37.31C91.167 37.288 91.2861 37.3054 91.39 37.3594C91.3993 37.3655 91.4097 37.3695 91.4206 37.3713C91.4315 37.3731 91.4427 37.3727 91.4534 37.37C91.4642 37.3673 91.4742 37.3625 91.483 37.3557C91.4918 37.349 91.4991 37.3405 91.5044 37.3308C91.5101 37.3215 91.5138 37.311 91.5154 37.3002C91.5171 37.2894 91.5165 37.2783 91.5139 37.2677C91.5112 37.2571 91.5065 37.2471 91.5 37.2383C91.4934 37.2295 91.4852 37.2221 91.4758 37.2164C91.3337 37.1391 91.1683 37.116 91.0104 37.1514C90.9325 37.174 90.8603 37.2127 90.7985 37.2651C90.7366 37.3176 90.6866 37.3825 90.6516 37.4556C90.6457 37.4649 90.6419 37.4752 90.6402 37.4861C90.6386 37.4969 90.6393 37.508 90.6423 37.5185C90.6452 37.529 90.6503 37.5389 90.6573 37.5473C90.6643 37.5557 90.673 37.5626 90.6828 37.5674C90.6946 37.5744 90.7081 37.578 90.7218 37.5778Z" fill="#263238"/>
<path id="Vector_117" d="M93.912 37.5128C93.924 37.5108 93.9355 37.5064 93.9457 37.4998C93.9556 37.495 93.9642 37.4881 93.9712 37.4797C93.9782 37.4712 93.9833 37.4614 93.9863 37.4509C93.9892 37.4403 93.9899 37.4293 93.9883 37.4184C93.9867 37.4076 93.9828 37.3973 93.977 37.388C93.8927 37.2494 93.7603 37.1467 93.6051 37.0994C93.5263 37.081 93.4444 37.0792 93.3648 37.094C93.2851 37.1087 93.2094 37.1398 93.1423 37.1852C93.1234 37.1966 93.1097 37.215 93.1044 37.2365C93.099 37.2579 93.1024 37.2807 93.1138 37.2996C93.1251 37.3186 93.1436 37.3322 93.165 37.3376C93.1865 37.343 93.2092 37.3396 93.2282 37.3282C93.2762 37.2941 93.3309 37.2705 93.3887 37.2588C93.4465 37.2472 93.506 37.2478 93.5635 37.2606C93.6723 37.298 93.7644 37.3726 93.8235 37.4712C93.8317 37.4869 93.8448 37.4994 93.8607 37.5069C93.8767 37.5144 93.8947 37.5165 93.912 37.5128Z" fill="#263238"/>
<path id="Vector_118" d="M92.053 38.116C91.9616 38.4622 91.772 38.7746 91.507 39.0156C91.0806 39.377 91.9256 39.6916 91.9256 39.6916L92.053 38.116Z" fill="#BA4D3C"/>
<path id="Vector_119" d="M95.68 37.9418C95.0257 37.8531 94.3606 37.9878 93.7924 38.324C93.743 37.8612 93.4414 37.5024 93.0722 37.5024C92.703 37.5024 92.3702 37.9002 92.3494 38.402C92.2404 38.3234 92.1094 38.281 91.975 38.281C91.8405 38.281 91.7095 38.3234 91.6006 38.402C91.5746 37.908 91.26 37.5154 90.8752 37.5154C90.4904 37.5154 90.1472 37.9418 90.1472 38.4696C90.1472 38.9974 90.4748 39.4238 90.8752 39.4238C91.2756 39.4238 91.598 39.0026 91.6032 38.4826C91.6396 38.4488 91.9048 38.2096 92.3468 38.4826C92.3468 39.0026 92.677 39.4186 93.0722 39.4186C93.4674 39.4186 93.8028 38.9896 93.8028 38.4644C93.804 38.4445 93.804 38.4246 93.8028 38.4046C94.3632 38.058 95.0278 37.9199 95.68 38.0146C95.6843 38.0154 95.6887 38.0152 95.6929 38.0141C95.6971 38.0131 95.7011 38.0111 95.7045 38.0084C95.7079 38.0057 95.7108 38.0023 95.7128 37.9985C95.7148 37.9946 95.7161 37.9904 95.7164 37.986C95.7175 37.9807 95.7175 37.9751 95.7162 37.9697C95.7149 37.9643 95.7124 37.9593 95.7089 37.9551C95.7054 37.9508 95.701 37.9474 95.696 37.9451C95.6909 37.9428 95.6855 37.9417 95.68 37.9418ZM90.8752 39.3458C90.5086 39.3458 90.2122 38.9454 90.2122 38.4566C90.2122 37.9678 90.5086 37.5674 90.8752 37.5674C91.2418 37.5674 91.5408 37.9652 91.5408 38.4566C91.5408 38.948 91.234 39.3458 90.8674 39.3458H90.8752ZM93.0722 39.3458C92.7082 39.3458 92.4092 38.9454 92.4092 38.4566C92.4092 37.9678 92.7082 37.5674 93.0722 37.5674C93.4362 37.5674 93.7378 37.9652 93.7378 38.4566C93.7378 38.948 93.431 39.3458 93.0644 39.3458H93.0722Z" fill="white"/>
<path id="Vector_120" d="M88.2674 46.5088L86.0366 51.8492C85.6622 52.7332 85.28 53.612 84.8926 54.4726C84.7002 54.9016 84.5 55.3254 84.2998 55.7336C84.0996 56.1418 83.8942 56.5422 83.6992 56.8698C83.6467 56.9594 83.5894 57.0462 83.5276 57.1298L83.239 57.2676L82.9218 57.4106L82.2718 57.694L79.5964 58.8276C77.7998 59.5894 76.0006 60.3746 74.2196 61.204L74.8488 63.1644C76.791 62.7952 78.7098 62.361 80.6234 61.8644C81.5776 61.6044 82.5318 61.3652 83.4834 61.0844L84.2114 60.8634L84.5806 60.7464L84.9732 60.6112L85.1214 60.5566L85.189 60.528L85.449 60.411L85.5894 60.346C85.6466 60.3122 85.7012 60.281 85.7532 60.2446C85.8052 60.2082 85.8624 60.1718 85.8936 60.1484C86.0193 60.0526 86.1383 59.9484 86.2498 59.8364C86.3668 59.7168 86.463 59.6076 86.5462 59.5062C86.7048 59.3164 86.8192 59.1526 86.9362 58.9862C87.1338 58.7002 87.3054 58.4246 87.4562 58.1568C87.5758 57.9618 87.685 57.772 87.7942 57.5822C88.0542 57.1246 88.2882 56.6722 88.5196 56.2224C88.985 55.3202 89.4088 54.4024 89.8196 53.5106C90.6438 51.6906 91.4108 49.8862 92.1102 48.0168L88.2674 46.5088ZM83.6472 57.0804H83.6316L83.6576 57.0622L83.681 57.0492L83.6472 57.0804Z" fill="#F9800F"/>
<path id="Vector_121" opacity="0.2" d="M88.0672 49.777C87.8514 51.337 87.4822 58.1542 87.4822 58.1542C87.4827 58.1602 87.4827 58.1663 87.4822 58.1724C87.321 58.4324 87.1494 58.7158 86.9622 59.0018C86.8452 59.1656 86.7308 59.3294 86.5722 59.5218C86.7022 56.2406 88.0672 49.777 88.0672 49.777Z" fill="black"/>
<path id="Vector_122" d="M75.0074 62.5587C74.9502 62.1734 74.8499 61.7957 74.7084 61.4329C74.3929 61.1026 73.9714 60.8937 73.5176 60.8427C72.8676 60.8271 72.3502 60.6425 71.864 60.6659C71.3778 60.6893 71.8952 61.0923 72.2124 61.2535C72.5296 61.4147 72.891 61.5967 72.7324 61.8177C72.5738 62.0387 70.4522 62.9929 70.265 63.3231C70.0778 63.6533 70.473 63.6039 70.473 63.6039C70.473 63.6039 69.9972 63.8223 70.005 64.0797C70.0128 64.3371 70.3534 64.2903 70.3534 64.2903C70.3534 64.2903 70.0388 64.4463 70.1766 64.6543C70.2468 64.7635 70.7876 64.6777 71.2972 64.5737C71.1906 64.6257 71.1178 64.6881 71.1048 64.7661C71.058 65.0833 71.76 64.9793 72.3216 64.9065C72.9012 64.8404 73.4399 64.5747 73.8452 64.1551C74.2326 63.7287 75.1114 63.2191 75.0074 62.5587ZM72.1864 64.3787C72.2028 64.3768 72.2194 64.3768 72.2358 64.3787H72.1864Z" fill="#CE7A63"/>
<path id="Vector_123" d="M70.4418 64.3058C70.9852 64.0614 71.5364 63.8326 72.0902 63.6272C72.149 63.7708 72.2185 63.9099 72.2982 64.0432C72.3372 64.1108 72.423 64.025 72.384 63.96C72.1416 63.5401 71.9935 63.0726 71.9498 62.5898C71.9498 62.5092 71.8354 62.5352 71.8432 62.6158C71.8555 62.7381 71.8746 62.8596 71.9004 62.9798C71.8903 62.976 71.8792 62.976 71.8692 62.9798C71.4153 63.1095 70.9788 63.2937 70.5692 63.5284C70.5068 63.5648 70.5484 63.6792 70.6134 63.6428C71.0113 63.4131 71.4356 63.2324 71.877 63.1046C71.8844 63.102 71.8913 63.0979 71.8971 63.0925C71.9029 63.0871 71.9076 63.0806 71.9108 63.0734C71.943 63.2246 71.9865 63.3732 72.0408 63.518C71.4844 63.7234 70.9358 63.9496 70.3898 64.1966C70.3326 64.22 70.3742 64.337 70.4418 64.3058Z" fill="#BA4D3C"/>
<path id="Vector_124" d="M72.5243 63.0474C72.6962 62.783 72.9515 62.5835 73.2497 62.4808C73.5479 62.3781 73.8719 62.3781 74.1701 62.4806C74.2351 62.5066 74.2767 62.387 74.2117 62.361C73.5721 62.1244 72.8935 62.361 72.4359 62.9772C72.4298 62.9828 72.4249 62.9896 72.4217 62.9973C72.4185 63.0049 72.4169 63.0131 72.4172 63.0214C72.4175 63.0297 72.4195 63.0379 72.4233 63.0453C72.427 63.0527 72.4323 63.0592 72.4388 63.0644C72.4453 63.0695 72.4528 63.0732 72.4609 63.0752C72.469 63.0771 72.4774 63.0773 72.4855 63.0757C72.4936 63.0741 72.5013 63.0707 72.508 63.0658C72.5147 63.0609 72.5203 63.0546 72.5243 63.0474Z" fill="#BA4D3C"/>
<path id="Vector_125" d="M101.819 44.6785C103.09 46.3295 104.304 48.0143 105.503 49.7173C106.106 50.5649 106.696 51.4229 107.284 52.2861C107.871 53.1493 108.446 54.0073 109.036 54.9303L109.151 55.1071L109.288 55.3333L109.356 55.4477L109.374 55.4763L109.434 55.5881L109.499 55.7233C109.52 55.7701 109.538 55.8169 109.546 55.8403C109.583 55.9443 109.615 56.0501 109.642 56.1575L109.671 56.2823L109.689 56.3837C109.721 56.5875 109.74 56.7934 109.743 56.9999C109.743 57.1715 109.743 57.3327 109.743 57.4835C109.728 58.0867 109.681 58.6275 109.629 59.1709C109.522 60.2499 109.369 61.2951 109.213 62.3377C108.888 64.4177 108.48 66.4743 107.999 68.5257L105.817 68.2657C105.817 66.1857 105.841 64.1057 105.872 62.0569C105.872 61.0169 105.89 60.0055 105.872 59.0071C105.872 58.5131 105.849 58.0165 105.81 57.5823C105.81 57.4731 105.789 57.3743 105.776 57.2859C105.771 57.2332 105.759 57.1815 105.739 57.1325V57.1637C105.748 57.2091 105.761 57.2535 105.778 57.2963L105.807 57.3665C105.819 57.3975 105.833 57.4279 105.849 57.4575L105.888 57.5277V57.5147L105.849 57.4653L105.669 57.2209C105.082 56.4409 104.432 55.6063 103.813 54.7847C103.194 53.9631 102.557 53.1415 101.936 52.3121C100.688 50.6559 99.45 48.9919 98.2566 47.2941L101.819 44.6785Z" fill="#F9800F"/>
<path id="Vector_126" d="M107.957 68.393C107.481 67.1606 106.418 67.4752 106.106 67.7872C106.106 67.7872 105.326 68.588 105.157 69.0456C104.988 69.5032 104.762 69.9504 104.842 70.1584C104.881 70.2572 105.019 70.1584 105.154 70.018C105.087 70.1841 105.045 70.3594 105.03 70.538C105.03 70.538 105.149 71.8016 105.641 72.1968C106.132 72.592 106.038 71.4558 106.038 71.4558C106.038 71.4558 106.098 72.5816 107.286 72.2176C107.744 72.0798 108.248 70.7304 108.326 69.979C108.537 69.3446 107.957 68.393 107.957 68.393Z" fill="#CE7A63"/>
<path id="Vector_127" d="M92.9396 43.5812C92.9396 43.5812 91.9282 43.472 91.3796 44.0882C91.1612 44.8448 91.6396 45.7444 92.1596 46.6544L93.2802 45.4974C93.3608 45.5 92.7784 44.5094 92.9396 43.5812Z" fill="#F9800F"/>
<path id="Vector_128" opacity="0.2" d="M92.9396 43.5812C92.9396 43.5812 91.9282 43.472 91.3796 44.0882C91.1612 44.8448 91.6396 45.7444 92.1596 46.6544L93.2802 45.4974C93.3608 45.5 92.7784 44.5094 92.9396 43.5812Z" fill="black"/>
<path id="Vector_129" d="M95.953 43.0301C95.4746 44.1351 94.4502 44.8657 93.2854 45.4975L93.9172 46.6545L97.8172 43.7269C97.8172 43.7269 96.6992 42.7337 95.953 43.0301Z" fill="#F9800F"/>
<path id="Vector_130" opacity="0.2" d="M95.953 43.0301C95.4746 44.1351 94.4502 44.8657 93.2854 45.4975L93.9172 46.6545L97.8172 43.7269C97.8172 43.7269 96.6992 42.7337 95.953 43.0301Z" fill="black"/>
<path id="Vector_131" opacity="0.2" d="M93.2906 47.1666C93.2906 47.2064 93.2788 47.2452 93.2567 47.2781C93.2346 47.3111 93.2031 47.3368 93.1664 47.3518C93.1297 47.3669 93.0893 47.3707 93.0504 47.3628C93.0115 47.3549 92.9758 47.3355 92.9479 47.3073C92.92 47.279 92.9012 47.2431 92.8937 47.2041C92.8863 47.1651 92.8906 47.1247 92.9062 47.0882C92.9217 47.0517 92.9478 47.0206 92.9811 46.9989C93.0143 46.9772 93.0533 46.9659 93.093 46.9664C93.1456 46.9671 93.1959 46.9885 93.2329 47.026C93.2699 47.0635 93.2906 47.114 93.2906 47.1666Z" fill="black"/>
<path id="Vector_132" opacity="0.2" d="M93.2906 48.4718C93.2906 48.5115 93.2788 48.5503 93.2567 48.5833C93.2346 48.6163 93.2031 48.6419 93.1664 48.657C93.1297 48.6721 93.0893 48.6759 93.0504 48.668C93.0115 48.66 92.9758 48.6407 92.9479 48.6124C92.92 48.5842 92.9012 48.5483 92.8937 48.5093C92.8863 48.4703 92.8906 48.4299 92.9062 48.3934C92.9217 48.3569 92.9478 48.3258 92.9811 48.3041C93.0143 48.2824 93.0533 48.2711 93.093 48.2716C93.1456 48.2723 93.1959 48.2937 93.2329 48.3312C93.2699 48.3686 93.2906 48.4192 93.2906 48.4718Z" fill="black"/>
<path id="Vector_133" opacity="0.2" d="M93.2906 49.777C93.2906 49.8167 93.2788 49.8555 93.2567 49.8885C93.2346 49.9215 93.2031 49.9471 93.1664 49.9622C93.1297 49.9773 93.0893 49.9811 93.0504 49.9731C93.0115 49.9652 92.9758 49.9459 92.9479 49.9176C92.92 49.8894 92.9012 49.8534 92.8937 49.8144C92.8863 49.7754 92.8906 49.7351 92.9062 49.6986C92.9217 49.662 92.9478 49.631 92.9811 49.6093C93.0143 49.5876 93.0533 49.5763 93.093 49.5768C93.1456 49.5775 93.1959 49.5989 93.2329 49.6363C93.2699 49.6738 93.2906 49.7244 93.2906 49.777Z" fill="black"/>
</g>
<g id="freepik--character-2--inject-53">
<path id="Vector_134" d="M68.4008 113.89L68.9364 116.589H70.3612L70.551 113.89H68.4008Z" fill="#FFC3BD"/>
<path id="Vector_135" d="M70.174 116.246C70.2453 116.155 70.3407 116.087 70.4492 116.048C70.5576 116.009 70.6749 116.001 70.7876 116.025C71.1308 116.139 71.5676 116.701 71.5676 116.701C71.5676 116.701 73.4292 117.299 73.931 117.33C74.4328 117.361 74.8748 117.645 75.062 118.63H68.9806C68.9806 118.63 68.7414 116.433 68.7024 116.056C68.6634 115.679 69.264 116.15 69.264 116.15L70.174 116.246Z" fill="#263238"/>
<path id="Vector_136" d="M74.88 118.326H73.7828L68.9832 118.277C68.9234 118.277 68.9234 118.18 68.9832 118.183H69.3082C69.4104 117.945 69.416 117.676 69.3238 117.433C69.2317 117.191 69.049 116.993 68.8142 116.883C68.7596 116.854 68.8142 116.771 68.861 116.802C69.1079 116.923 69.3006 117.131 69.4008 117.387C69.5009 117.643 69.5013 117.927 69.4018 118.183C69.628 118.183 69.8542 118.183 70.0804 118.183L74.8774 118.232C74.8835 118.232 74.8897 118.233 74.8954 118.235C74.9011 118.238 74.9064 118.241 74.9109 118.245C74.9153 118.249 74.9189 118.255 74.9214 118.26C74.9239 118.266 74.9253 118.272 74.9255 118.278C74.9257 118.284 74.9246 118.29 74.9224 118.296C74.9202 118.302 74.9169 118.307 74.9127 118.311C74.9085 118.316 74.9034 118.319 74.8978 118.322C74.8922 118.324 74.8861 118.326 74.88 118.326Z" fill="#F9800F"/>
<path id="Vector_137" d="M71.3622 117.083C71.4059 117.012 71.4642 116.951 71.5332 116.904C71.6022 116.857 71.6805 116.825 71.7627 116.81C71.8449 116.795 71.9294 116.798 72.0104 116.818C72.0915 116.839 72.1674 116.876 72.2332 116.927C72.2826 116.964 72.3293 116.88 72.2799 116.844C72.2035 116.786 72.1157 116.745 72.0223 116.723C71.929 116.702 71.832 116.7 71.7379 116.718C71.6437 116.736 71.5545 116.774 71.4758 116.829C71.3972 116.883 71.331 116.954 71.2816 117.036C71.2478 117.086 71.3284 117.133 71.3622 117.083Z" fill="white"/>
<path id="Vector_138" d="M71.8874 117.242C71.9311 117.171 71.9894 117.109 72.0584 117.062C72.1275 117.015 72.2057 116.983 72.2879 116.969C72.3702 116.954 72.4546 116.957 72.5357 116.977C72.6167 116.997 72.6926 117.034 72.7584 117.086C72.8078 117.122 72.8546 117.039 72.8052 117.003C72.7287 116.945 72.6409 116.904 72.5476 116.882C72.4542 116.86 72.3572 116.858 72.2631 116.876C72.1689 116.895 72.0797 116.932 72.0011 116.987C71.9224 117.042 71.8562 117.113 71.8068 117.195C71.7704 117.244 71.8536 117.291 71.8874 117.242Z" fill="white"/>
<path id="Vector_139" d="M72.4308 117.4C72.4742 117.329 72.5324 117.267 72.6014 117.22C72.6704 117.173 72.7487 117.141 72.8311 117.126C72.9135 117.111 72.998 117.114 73.0792 117.135C73.1603 117.155 73.2362 117.192 73.3018 117.244C73.3486 117.281 73.3954 117.198 73.3486 117.161C73.2719 117.103 73.1839 117.062 73.0903 117.04C72.9968 117.019 72.8997 117.017 72.8053 117.035C72.7109 117.053 72.6214 117.091 72.5426 117.146C72.4638 117.2 72.3973 117.271 72.3476 117.354C72.3138 117.403 72.3944 117.45 72.4308 117.4Z" fill="white"/>
<path id="Vector_140" d="M55.6426 113.909L55.939 116.589H57.3638L57.7902 113.909H55.6426Z" fill="#FFC3BD"/>
<path id="Vector_141" d="M57.1766 116.246C57.248 116.155 57.3433 116.087 57.4518 116.048C57.5602 116.009 57.6775 116.001 57.7902 116.025C58.1334 116.139 58.5702 116.701 58.5702 116.701C58.5702 116.701 60.4318 117.299 60.9336 117.33C61.4354 117.361 61.8748 117.645 62.0646 118.63H55.9832C55.9832 118.63 55.744 116.433 55.705 116.056C55.666 115.679 56.2666 116.15 56.2666 116.15L57.1766 116.246Z" fill="#263238"/>
<path id="Vector_142" d="M61.893 118.326H60.7958L55.9962 118.277C55.9838 118.277 55.9719 118.272 55.9631 118.263C55.9543 118.254 55.9494 118.242 55.9494 118.23C55.9494 118.217 55.9543 118.206 55.9631 118.197C55.9719 118.188 55.9838 118.183 55.9962 118.183H56.3212C56.4234 117.945 56.429 117.676 56.3368 117.433C56.2447 117.191 56.062 116.993 55.8272 116.883C55.7726 116.854 55.8272 116.771 55.874 116.802C56.1209 116.923 56.3136 117.131 56.4138 117.387C56.5139 117.643 56.5143 117.927 56.4148 118.183C56.641 118.183 56.8672 118.183 57.0934 118.183L61.8904 118.232C61.8965 118.232 61.9027 118.233 61.9084 118.235C61.9142 118.238 61.9194 118.241 61.9239 118.245C61.9283 118.249 61.9319 118.255 61.9344 118.26C61.9369 118.266 61.9383 118.272 61.9385 118.278C61.9387 118.284 61.9376 118.29 61.9354 118.296C61.9332 118.302 61.9299 118.307 61.9257 118.311C61.9215 118.316 61.9164 118.319 61.9108 118.322C61.9052 118.324 61.8991 118.326 61.893 118.326Z" fill="#F9800F"/>
<path id="Vector_143" d="M58.3648 117.083C58.4085 117.012 58.4668 116.951 58.5358 116.904C58.6049 116.857 58.6831 116.825 58.7653 116.81C58.8476 116.795 58.932 116.798 59.0131 116.818C59.0941 116.839 59.17 116.876 59.2358 116.927C59.2852 116.964 59.332 116.88 59.2826 116.844C59.2061 116.786 59.1184 116.745 59.025 116.723C58.9316 116.702 58.8347 116.7 58.7405 116.718C58.6464 116.736 58.5571 116.774 58.4785 116.829C58.3998 116.883 58.3337 116.954 58.2842 117.036C58.2504 117.086 58.331 117.133 58.3648 117.083Z" fill="white"/>
<path id="Vector_144" d="M58.89 117.242C58.9337 117.171 58.992 117.109 59.0611 117.062C59.1301 117.015 59.2083 116.983 59.2905 116.969C59.3728 116.954 59.4572 116.957 59.5383 116.977C59.6194 116.997 59.6953 117.034 59.761 117.086C59.8104 117.122 59.8572 117.039 59.8078 117.003C59.7313 116.945 59.6436 116.904 59.5502 116.882C59.4568 116.86 59.3599 116.858 59.2657 116.876C59.1716 116.895 59.0823 116.932 59.0037 116.987C58.9251 117.042 58.8589 117.113 58.8094 117.195C58.773 117.244 58.8562 117.291 58.89 117.242Z" fill="white"/>
<path id="Vector_145" d="M59.4334 117.4C59.4769 117.329 59.5349 117.268 59.6037 117.221C59.6725 117.174 59.7505 117.142 59.8326 117.127C59.9146 117.113 59.9988 117.115 60.0797 117.136C60.1606 117.156 60.2363 117.193 60.3018 117.244C60.3512 117.281 60.398 117.198 60.3512 117.161C60.2745 117.103 60.1866 117.062 60.093 117.04C59.9994 117.019 59.9023 117.017 59.8079 117.035C59.7136 117.053 59.6241 117.091 59.5452 117.146C59.4664 117.2 59.3999 117.271 59.3502 117.354C59.3164 117.403 59.397 117.45 59.4334 117.4Z" fill="white"/>
<path id="Vector_146" d="M67.9276 113.984H71.0736C71.3466 109.933 72.1136 96.5016 71.5078 89.856C71.9472 80.6364 70.538 68.3956 70.538 68.3956H60.58C60.58 68.3956 61.3106 76.5882 64.5918 89.7156C64.5554 100.134 67.0956 110.539 67.9276 113.984Z" fill="#F9800F"/>
<path id="Vector_147" opacity="0.2" d="M67.9276 113.984H71.0736C71.3466 109.933 72.1136 96.5016 71.5078 89.856C71.9472 80.6364 70.538 68.3956 70.538 68.3956H60.58C60.58 68.3956 61.3106 76.5882 64.5918 89.7156C64.5554 100.134 67.0956 110.539 67.9276 113.984Z" fill="white"/>
<path id="Vector_148" opacity="0.2" d="M64.0406 87.516C65.8424 80.1554 64.259 70.616 64.259 70.616L62.699 81.5204L64.0406 87.516Z" fill="black"/>
<path id="Vector_149" d="M67.5532 113.906L67.7846 115.102L71.3934 115.086L71.396 113.89L67.5532 113.906Z" fill="#263238"/>
<path id="Vector_150" d="M55.1928 114.101H58.3414C59.462 109.941 61.7214 96.5276 62.075 89.882C63.8586 80.6598 64.7114 68.3956 64.7114 68.3956H54.7404C54.7404 68.3956 53.8122 76.6818 55.1772 89.817C54.912 101.273 55.12 110.539 55.1928 114.101Z" fill="#F9800F"/>
<path id="Vector_151" opacity="0.2" d="M55.1928 114.101H58.3414C59.462 109.941 61.7214 96.5276 62.075 89.882C63.8586 80.6598 64.7114 68.3956 64.7114 68.3956H54.7404C54.7404 68.3956 53.8122 76.6818 55.1772 89.817C54.912 101.273 55.12 110.539 55.1928 114.101Z" fill="white"/>
<path id="Vector_152" d="M54.9172 113.903L54.912 115.089H58.5494L58.7392 113.903H54.9172Z" fill="#263238"/>
<path id="Vector_153" d="M71.8406 69.9011C64.9246 72.5583 53.6588 70.6317 53.6588 70.6317C53.7342 68.7363 53.8044 65.8035 53.8434 62.6081C53.8434 61.7501 53.8615 60.8739 53.8667 59.9925C53.8667 58.3025 53.8667 56.5969 53.8667 54.9875C53.8667 54.8575 53.8667 54.7275 53.8667 54.6001C53.8667 53.8201 53.8459 53.0401 53.8303 52.3225C53.8303 52.2341 53.8303 52.1457 53.8303 52.0625C53.7991 50.6403 53.7472 49.3819 53.6822 48.3757C53.5548 46.4803 54.587 44.7149 56.4616 44.4003C57.031 44.3041 57.6472 44.2183 58.2816 44.1403C58.4324 44.1221 58.5884 44.1091 58.7444 44.0935C60.5732 43.9138 62.4114 43.8469 64.2486 43.8933H64.5086H64.649H64.8804C65.6604 43.9245 66.4248 43.9843 67.0982 44.0727C68.627 44.2703 69.9841 45.4767 70.0101 47.0211C70.0336 48.4355 70.1714 51.4229 70.3716 54.7925C70.4496 56.0665 70.5354 57.3925 70.6316 58.7211C70.98 63.9601 71.4506 68.9911 71.8406 69.9011Z" fill="#263238"/>
<path id="Vector_154" opacity="0.2" d="M57.72 49.777C57.72 49.777 57.5718 57.1194 58.0606 58.0112C58.5494 58.903 67.9952 61.5992 67.9952 61.5992C63.2658 60.957 58.6924 60.2368 56.2718 58.435L57.72 49.777Z" fill="black"/>
<path id="Vector_155" opacity="0.2" d="M68.3072 63.7572C62.803 65.0572 56.3654 63.388 53.8434 62.608C53.8434 61.75 53.8616 60.8738 53.8668 59.9924C57.7434 62.8602 68.3072 63.7572 68.3072 63.7572Z" fill="black"/>
<path id="Vector_156" d="M63.6298 48.3912L62.7016 58.6742L64.558 62.4078L66.0062 58.3258L64.506 48.3912H63.6298Z" fill="#F9800F"/>
<path id="Vector_157" d="M63.8508 46.1812L62.8498 47.6658L64.0276 49.0256L65.2028 47.2732L63.8508 46.1812Z" fill="#F9800F"/>
<path id="Vector_158" d="M65.8866 33.8598C65.3529 33.6636 64.7845 33.5795 64.2169 33.6126C63.6492 33.6457 63.0945 33.7953 62.5872 34.0522C61.9216 34.398 61.3444 34.9284 61.36 35.724C61.3912 37.5778 61.9086 40.6796 61.9086 40.6796L68.1694 37.8508C68.1694 37.8508 68.6244 36.2908 67.8912 35.3054C67.3904 34.6259 66.6894 34.1204 65.8866 33.8598Z" fill="#263238"/>
<path id="Vector_159" d="M63.5492 33.7039C63.5492 33.7039 62.7016 33.2333 61.854 34.1095C61.1442 34.8401 61.4536 37.2295 61.4536 37.2295L63.5492 33.7039Z" fill="#263238"/>
<path id="Vector_160" d="M62.92 33.8988C62.92 33.8988 63.1644 32.4844 65.7462 32.9082C68.328 33.332 70.3768 35.464 69.4356 36.5794C68.4944 37.6948 65.7462 35.8644 65.7462 35.8644L62.92 33.8988Z" fill="#263238"/>
<path id="Vector_161" d="M64.6438 42.9859C64.6447 42.9928 64.6447 42.9998 64.6438 43.0067L64.2512 44.0311C64.2053 44.2414 64.1783 44.4555 64.1706 44.6707C64.1665 44.8443 64.1743 45.0181 64.194 45.1907C64.3916 45.5339 64.4228 46.2671 63.5986 46.1813C62.5586 46.0747 60.7906 44.4393 60.7698 43.9713C61.4068 42.6011 62.0126 40.8877 62.0698 39.5175L63.1098 40.9319L64.6438 42.9859Z" fill="#FFC3BD"/>
<path id="Vector_162" d="M63.8508 46.1813C64.0978 45.6353 64.0952 44.9801 64.181 44.3925C64.2038 44.1662 64.2626 43.945 64.3552 43.7373C64.3552 43.7373 65.0676 43.5709 65.4862 43.9479C65.6368 45.0873 65.5339 46.2459 65.1846 47.3409L63.8508 46.1813Z" fill="#263238"/>
<path id="Vector_163" d="M59.8988 43.9998C59.8988 43.9998 60.476 42.8896 61.2664 42.7544C61.3626 44.0934 61.9086 45.1568 63.8508 46.1812L62.7016 47.8842C61.1 46.5764 60.2056 45.2842 59.8988 43.9998Z" fill="#263238"/>
<g id="Group" opacity="0.2">
<path id="Vector_164" d="M64.6334 43.0093L64.2408 44.0337C63.6194 43.6671 63.0084 42.9521 62.9278 42.2397C62.8732 41.7197 63.1488 41.2855 63.3542 41.2803L64.6334 43.0093Z" fill="black"/>
</g>
<path id="Vector_165" d="M67.5116 41.08C67.4232 41.3036 67.3296 41.522 67.2334 41.7378C66.3624 43.6358 63.9106 43.5578 62.5534 41.9354C62.4304 41.7892 62.3191 41.6336 62.2206 41.47C61.3964 40.1024 61.7422 39.156 62.127 36.9668C62.211 36.457 62.4239 35.9773 62.7454 35.5729C63.067 35.1686 63.4865 34.8531 63.9642 34.6565C64.4419 34.4598 64.9619 34.3885 65.4749 34.4493C65.9879 34.5101 66.4769 34.7009 66.8954 35.0038C68.64 36.2388 68.38 38.8544 67.5116 41.08Z" fill="#FFC3BD"/>
<path id="Vector_166" d="M63.3906 37.804C63.3906 37.804 63.3776 39.624 64.0926 39.884C64.8076 40.144 65.3406 39.5382 66.1258 40.2948C66.2836 40.2191 66.4589 40.1873 66.6332 40.2028C66.8076 40.2184 66.9745 40.2807 67.1164 40.3832C67.5896 40.7394 67.5116 40.9526 67.5116 40.9526C67.5116 40.9526 67.3296 43.68 64.8336 43.3628C62.3376 43.0456 62.036 40.599 62.2076 39.299L62.7016 37.6844L63.3906 37.804Z" fill="#263238"/>
<path id="Vector_167" d="M65.013 40.3546C65.5208 40.529 66.0371 40.6774 66.56 40.7992C66.5157 40.9001 66.4513 40.9908 66.3707 41.0657C66.2901 41.1407 66.1949 41.1984 66.0911 41.2352C65.9873 41.272 65.8771 41.2871 65.7673 41.2796C65.6574 41.2722 65.5502 41.2423 65.4524 41.1918C64.9506 40.976 65.013 40.3546 65.013 40.3546Z" fill="white"/>
<path id="Vector_168" d="M67.08 34.7958C66.105 33.9742 64.0094 33.6024 63.0448 34.5358C62.0802 35.4692 62.075 37.1514 62.075 37.1514C62.0634 37.333 62.121 37.5123 62.2362 37.6532C62.2603 37.6783 62.2813 37.7062 62.2986 37.7364L63.3854 37.9132C63.4712 37.466 63.6454 36.6522 63.9548 36.6132C64.5268 36.5352 64.1368 35.906 64.2616 35.5524C64.6594 34.4032 67.782 35.1884 68.1408 36.946C68.146 36.9538 68.0602 35.62 67.08 34.7958Z" fill="#263238"/>
<path id="Vector_169" d="M60.8556 38.1784C60.8855 38.7366 61.1339 39.2606 61.5472 39.637C62.101 40.1284 62.7016 39.7124 62.8186 39.0208C62.9252 38.3994 62.7666 37.3932 62.0802 37.1644C61.3938 36.9356 60.8296 37.4946 60.8556 38.1784Z" fill="#FFC3BD"/>
<path id="Vector_170" d="M65.3302 38.3058C65.2886 38.4748 65.3458 38.6308 65.455 38.6594C65.5642 38.688 65.6864 38.571 65.728 38.3994C65.7696 38.2278 65.7098 38.0744 65.6006 38.0484C65.4914 38.0224 65.3692 38.1368 65.3406 38.3084" fill="#263238"/>
<path id="Vector_171" d="M67.1034 38.7245C67.0618 38.8935 67.119 39.0495 67.2282 39.0781C67.3374 39.1067 67.4596 38.9897 67.5012 38.8181C67.5428 38.6465 67.483 38.4931 67.3738 38.4671C67.2646 38.4411 67.1424 38.5555 67.1138 38.7271" fill="#263238"/>
<path id="Vector_172" d="M67.86 38.22C67.845 38.216 67.8314 38.2081 67.8205 38.1971C67.8095 38.1862 67.8016 38.1725 67.7976 38.1576C67.7846 38.0968 67.7592 38.0393 67.7229 37.9887C67.6867 37.9382 67.6404 37.8957 67.587 37.8638C67.4746 37.8089 67.3458 37.7978 67.2256 37.8326C67.2032 37.8392 67.1791 37.837 67.1582 37.8264C67.1374 37.8157 67.1215 37.7975 67.1138 37.7754C67.1078 37.753 67.1103 37.7291 67.1209 37.7085C67.1314 37.6878 67.1493 37.6718 67.171 37.6636C67.3373 37.6174 67.5146 37.6331 67.6702 37.7078C67.7442 37.751 67.8086 37.8087 67.8595 37.8775C67.9105 37.9464 67.9469 38.0249 67.9666 38.1082C67.9731 38.1306 67.9704 38.1547 67.9592 38.1751C67.948 38.1956 67.9292 38.2108 67.9068 38.2174C67.8917 38.2221 67.8756 38.223 67.86 38.22Z" fill="#263238"/>
<path id="Vector_173" d="M64.9688 37.5258C64.9545 37.523 64.9412 37.5167 64.9298 37.5076C64.912 37.4896 64.902 37.4654 64.902 37.44C64.902 37.4147 64.912 37.3905 64.9298 37.3725C65.0516 37.2296 65.2221 37.137 65.4082 37.1125C65.501 37.1074 65.5939 37.1214 65.6811 37.1536C65.7682 37.1858 65.8479 37.2355 65.9152 37.2997C65.933 37.3177 65.943 37.3419 65.943 37.3672C65.943 37.3926 65.933 37.4168 65.9152 37.4348C65.9067 37.4439 65.8964 37.4511 65.885 37.456C65.8736 37.461 65.8613 37.4635 65.8489 37.4635C65.8365 37.4635 65.8242 37.461 65.8128 37.456C65.8014 37.4511 65.7911 37.4439 65.7826 37.4348C65.7343 37.3875 65.6769 37.3505 65.6139 37.3259C65.5509 37.3013 65.4836 37.2898 65.416 37.2918C65.2816 37.3096 65.1585 37.3763 65.0702 37.479C65.06 37.4962 65.0448 37.5098 65.0267 37.5181C65.0086 37.5265 64.9884 37.5292 64.9688 37.5258Z" fill="#263238"/>
<path id="Vector_174" d="M66.4976 38.3527C66.5498 38.804 66.6591 39.2469 66.8226 39.6709C67.0592 40.2117 66.1258 40.0089 66.1258 40.0089L66.4976 38.3527Z" fill="#ED847E"/>
<path id="Vector_175" d="M73.502 63.2763C73.1536 62.6731 71.8822 62.1219 71.8822 62.1219C71.5384 62.065 71.1885 62.0554 70.8422 62.0933H70.8916C70.8916 62.0933 71.7236 61.6149 71.5156 61.5005C71.3076 61.3861 70.798 61.5707 70.291 61.6773C69.897 61.7945 69.5302 61.989 69.212 62.2493C68.8402 62.4755 68.6244 63.1749 68.887 64.1005C68.887 64.1005 69.9478 65.1093 70.707 65.2497C71.4532 65.4317 72.9768 65.5253 73.307 65.0599C74.0194 64.0823 72.7064 63.3959 72.7064 63.3959C72.7064 63.3959 73.84 63.8795 73.502 63.2763Z" fill="#FFC3BD"/>
<path id="Vector_176" d="M68.796 61.8046L68.4996 63.8404C66.339 63.7234 64.207 63.5284 62.062 63.2424C60.9882 63.102 59.917 62.9304 58.8328 62.7224C58.2894 62.621 57.746 62.504 57.1896 62.3662C56.5984 62.2304 56.0165 62.0567 55.4476 61.8462C55.289 61.7838 55.1226 61.7136 54.9406 61.6252C54.7197 61.5156 54.5098 61.385 54.314 61.2352C54.1514 61.1117 54.0031 60.9704 53.872 60.814C53.7723 60.6903 53.6852 60.5571 53.612 60.4162C53.5626 60.3219 53.5192 60.2246 53.482 60.125L53.4274 59.9534L53.4144 59.8962C53.3588 59.6713 53.3188 59.4428 53.2948 59.2124C53.222 58.5286 53.209 57.9852 53.196 57.4184C53.196 56.303 53.196 55.224 53.2454 54.1424C53.3182 51.9818 53.4742 49.855 53.6926 47.71L57.837 48.0714C57.7772 49.1114 57.681 50.1748 57.6134 51.2252L57.369 54.3738C57.291 55.4138 57.2052 56.4538 57.161 57.4782C57.1428 57.8344 57.1272 58.201 57.1246 58.5182C57.4418 58.6664 57.824 58.812 58.2062 58.9446C58.6742 59.1058 59.1604 59.2566 59.6518 59.4074C60.6346 59.7064 61.646 59.9768 62.66 60.2472C64.6828 60.7698 66.7472 61.2898 68.796 61.8046Z" fill="#263238"/>
<path id="Vector_177" d="M87.0558 48.2405C85.6596 49.5587 84.2088 50.7963 82.7086 51.9897C81.9624 52.5929 81.1928 53.1675 80.3998 53.7473C79.9968 54.0281 79.5912 54.3089 79.131 54.5923C79.014 54.6625 78.8944 54.7327 78.7618 54.8055C78.6058 54.8945 78.4443 54.9735 78.2782 55.0421C78.1257 55.1038 77.9683 55.1525 77.8076 55.1877L77.701 55.2059L77.5606 55.2215C77.412 55.2375 77.262 55.2375 77.1134 55.2215H77.038L76.9314 55.2007C76.8627 55.1847 76.795 55.1647 76.7286 55.1409H76.6922L76.6194 55.1149C76.531 55.0811 76.414 55.0395 76.3464 55.0083L76.1228 54.9095C75.569 54.6495 75.1374 54.4077 74.6954 54.1555C74.2534 53.9033 73.8374 53.6511 73.4266 53.3755C72.605 52.8555 71.799 52.3355 71.0138 51.7713L70.889 51.6855L70.1636 51.1655C68.887 50.2555 67.6468 49.3169 66.43 48.3185L68.9728 45.0269C70.4886 46.1085 71.9888 47.2499 73.4734 48.3731C74.2196 48.9269 74.9554 49.4963 75.6964 50.0345C76.0682 50.2945 76.4322 50.5753 76.7936 50.8301C77.0536 51.0121 77.3136 51.1967 77.5736 51.3501C77.9038 51.1967 78.2548 51.0147 78.6136 50.8301C79.4274 50.4167 80.2438 49.9591 81.0706 49.5145C82.719 48.6175 84.3856 47.6945 86.0808 46.8521L87.0558 48.2405Z" fill="#263238"/>
<path id="Vector_178" opacity="0.2" d="M70.889 51.662L70.1636 51.142L69.94 47.593L70.889 51.662Z" fill="black"/>
<path id="Vector_179" d="M86.8894 48.2717C87.0349 48.261 87.1765 48.2198 87.3051 48.1508C87.4337 48.0819 87.5463 47.9866 87.6356 47.8712C88.0672 47.1666 88.7484 47.0367 89.0214 46.8859C89.2944 46.7351 88.9824 46.2722 88.2908 46.4204C88.2908 46.4204 88.5872 45.4558 88.8264 45.2218C89.0656 44.9878 90.324 44.4886 90.3006 44.3092C90.2772 44.1298 89.3022 44.421 88.7406 44.6784C88.179 44.9358 87.0194 46.3632 85.9794 46.8754C85.9716 46.8754 85.5608 47.9571 86.8894 48.2717Z" fill="#FFC3BD"/>
</g>
<g id="freepik--character-1--inject-53">
<path id="Vector_180" d="M37.4062 47.1459C37.6324 48.8593 37.8014 50.5805 37.9522 52.3017C38.0328 53.1597 38.0926 54.0229 38.1654 54.8783L38.2616 56.1627L38.3552 57.3067C38.3684 57.4402 38.3963 57.5719 38.4384 57.6993C38.4852 57.8709 38.5424 58.0633 38.6048 58.2531C38.727 58.6353 38.8648 59.0331 39.0078 59.4257C39.2834 60.2239 39.5902 61.0221 39.8814 61.8307C40.4794 63.4401 41.0852 65.0651 41.6494 66.7031L39.8034 67.6183C38.8362 66.1519 37.9418 64.6569 37.0812 63.1255C36.647 62.3637 36.2388 61.5863 35.8306 60.7855C35.6278 60.3877 35.4328 59.9821 35.2404 59.5609C35.1442 59.3477 35.048 59.1345 34.9544 58.8979C34.8369 58.6215 34.7413 58.3364 34.6684 58.0451L34.632 57.8891L34.6164 57.7929L34.5826 57.6161L34.5228 57.2755L34.4136 56.6203L34.2056 55.3203C34.0808 54.4571 33.9456 53.5991 33.839 52.7385C33.6102 51.0173 33.4074 49.2987 33.2696 47.5697L37.4062 47.1459Z" fill="#F9800F"/>
<path id="Vector_181" d="M39.794 57.2532L44.8963 63.2761C44.9578 63.3487 44.988 63.4428 44.9801 63.5376C44.9723 63.6324 44.9271 63.7203 44.8545 63.7818L36.3717 70.9681C36.2991 71.0296 36.205 71.0598 36.1102 71.0519C36.0153 71.0441 35.9275 70.9989 35.866 70.9263L30.7636 64.9034C30.7026 64.8313 30.6726 64.7379 30.6804 64.6438C30.6882 64.5496 30.7331 64.4624 30.8052 64.4014L39.29 57.2134C39.362 57.1523 39.4554 57.1224 39.5496 57.1302C39.6437 57.138 39.7309 57.1828 39.792 57.2549L39.794 57.2532Z" fill="#263238"/>
<path id="Vector_182" opacity="0.2" d="M39.794 57.2532L44.8963 63.2761C44.9578 63.3487 44.988 63.4428 44.9801 63.5376C44.9723 63.6324 44.9271 63.7203 44.8545 63.7818L36.3717 70.9681C36.2991 71.0296 36.205 71.0598 36.1102 71.0519C36.0153 71.0441 35.9275 70.9989 35.866 70.9263L30.7636 64.9034C30.7026 64.8313 30.6726 64.7379 30.6804 64.6438C30.6882 64.5496 30.7331 64.4624 30.8052 64.4014L39.29 57.2134C39.362 57.1523 39.4554 57.1224 39.5496 57.1302C39.6437 57.138 39.7309 57.1828 39.792 57.2549L39.794 57.2532Z" fill="white"/>
<path id="Vector_183" d="M38.948 64.0848C38.9485 64.3065 38.8832 64.5235 38.7604 64.7081C38.6376 64.8927 38.4627 65.0367 38.258 65.1219C38.0533 65.2072 37.8279 65.2297 37.6104 65.1868C37.3928 65.1438 37.1929 65.0373 37.0359 64.8807C36.8789 64.7241 36.772 64.5244 36.7285 64.307C36.6851 64.0895 36.7071 63.8641 36.7918 63.6592C36.8766 63.4543 37.0202 63.2791 37.2045 63.1558C37.3889 63.0326 37.6056 62.9668 37.8274 62.9668C38.1241 62.9668 38.4088 63.0845 38.6189 63.2941C38.8289 63.5037 38.9473 63.788 38.948 64.0848Z" fill="#263238"/>
<path id="Vector_184" d="M32.1854 33.943C32.1854 33.943 30.2172 33.9196 29.7388 36.14C29.2422 38.454 29.0966 37.544 28.0384 38.6464C26.9802 39.7488 28.1372 41.2464 26.312 42.0732C26.312 42.0732 27.833 43.55 30.7918 42.9702C33.7506 42.3904 33.3372 44.4964 37.1566 43.94C36.9895 43.6044 36.9228 43.2278 36.9643 42.8552C37.0058 42.4826 37.1538 42.1299 37.3906 41.8392C38.2226 40.846 37.6038 40.1206 37.6376 39.065C37.6714 38.0094 37.9444 35.7136 36.4936 34.7256C35.0428 33.7376 33.7636 34.1692 33.7636 34.1692C33.2618 33.974 32.7219 33.8966 32.1854 33.943Z" fill="#263238"/>
<path id="Vector_185" d="M37.3256 113.378L38.0692 116.446H39.6864L39.7592 113.378H37.3256Z" fill="#FF8B7B"/>
<path id="Vector_186" d="M44.3768 118.617C44.291 117.616 43.8568 117.317 43.3082 117.286C42.7596 117.255 40.7316 116.576 40.7316 116.576C40.7316 116.576 40.3104 115.939 39.9516 115.812C39.5928 115.684 39.2236 116.059 39.2236 116.059L38.2096 115.937C38.2096 115.937 37.9054 115.479 37.6896 115.879C37.3672 116.498 37.4062 118.219 37.4296 118.617H44.3768Z" fill="#F9800F"/>
<path id="Vector_187" d="M44.2468 118.355H42.9858L37.4738 118.326C37.4036 118.326 37.4192 118.22 37.4868 118.222H37.8612V118.209C37.9404 118.09 37.9939 117.956 38.0182 117.816C38.0426 117.675 38.0371 117.531 38.0024 117.393C37.9676 117.254 37.9042 117.125 37.8163 117.012C37.7284 116.9 37.6179 116.807 37.492 116.74C37.4348 116.709 37.492 116.615 37.557 116.649C37.6897 116.721 37.8063 116.82 37.8996 116.939C37.993 117.057 38.0613 117.194 38.1002 117.34C38.1391 117.486 38.1479 117.638 38.126 117.787C38.1042 117.937 38.0521 118.08 37.973 118.209H38.753L44.2624 118.238C44.33 118.251 44.317 118.357 44.2468 118.355Z" fill="black"/>
<path id="Vector_188" d="M40.4274 117C40.7134 116.662 41.132 116.568 41.4362 116.821C41.4856 116.862 41.5532 116.771 41.5038 116.73C41.1528 116.438 40.6666 116.566 40.3416 116.945C40.2948 117.003 40.378 117.055 40.4274 117Z" fill="white"/>
<path id="Vector_189" d="M40.9968 117.187C41.2828 116.849 41.7014 116.756 42.0056 117.008C42.055 117.049 42.1226 116.956 42.0732 116.917C41.7222 116.626 41.236 116.75 40.911 117.133C40.8642 117.19 40.95 117.242 40.9968 117.187Z" fill="white"/>
<path id="Vector_190" d="M41.5844 117.367C41.873 117.029 42.2916 116.932 42.5958 117.187C42.6452 117.229 42.7102 117.135 42.6634 117.096C42.3124 116.805 41.8262 116.93 41.5012 117.312C41.4518 117.367 41.5376 117.421 41.5844 117.367Z" fill="white"/>
<path id="Vector_191" d="M30.641 73.1849C31.1175 77.3034 31.8337 81.3906 32.786 85.4257C33.1327 86.9215 33.5183 88.5162 33.943 90.2097C32.7548 100.032 37.4088 114.221 37.4088 114.221L39.9022 114.166C39.9022 114.166 40.2142 98.3061 39.9204 90.0069C39.442 76.4063 37.7832 63.4401 37.7832 63.4401L30.9946 63.4141C30.9946 63.4141 29.822 65.4681 30.641 73.1849Z" fill="#263238"/>
<path id="Vector_192" opacity="0.2" d="M30.641 73.1849C31.1175 77.3034 31.8337 81.3906 32.786 85.4257C34.2134 79.9839 31.629 68.3749 31.629 68.3749L30.641 73.1849Z" fill="black"/>
<path id="Vector_193" d="M40.1882 114.754L40.2662 113.685H36.9408L37.1306 114.754H40.1882Z" fill="#263238"/>
<path id="Vector_194" d="M26.988 113.378L27.7342 116.446H29.3488L29.4242 113.378H26.988Z" fill="#FF8B7B"/>
<path id="Vector_195" d="M29.913 114.754L29.991 113.685H26.6656L26.8528 114.754H29.913Z" fill="#263238"/>
<path id="Vector_196" d="M34.0418 118.617C33.9534 117.616 33.5218 117.317 32.9732 117.286C32.4246 117.255 30.394 116.576 30.394 116.576C30.394 116.576 29.9728 115.939 29.614 115.812C29.2552 115.684 28.8834 116.059 28.8834 116.059L27.8694 115.937C27.8694 115.937 27.5652 115.479 27.3494 115.879C27.0244 116.498 27.0634 118.219 27.0894 118.617H34.0418Z" fill="#F9800F"/>
<path id="Vector_197" d="M33.9092 118.355H32.6508L27.1388 118.326C27.066 118.326 27.0816 118.219 27.1518 118.222H27.5236V118.209C27.5999 118.09 27.6508 117.957 27.6731 117.818C27.6954 117.679 27.6886 117.536 27.6532 117.4C27.6178 117.263 27.5545 117.136 27.4673 117.025C27.3801 116.914 27.2709 116.822 27.1466 116.756C27.0894 116.724 27.1466 116.631 27.2142 116.665C27.3469 116.737 27.4635 116.835 27.5568 116.954C27.6502 117.073 27.7183 117.209 27.757 117.356C27.7957 117.502 27.8042 117.654 27.7819 117.803C27.7597 117.953 27.7071 118.096 27.6276 118.225H28.4076L33.9196 118.253C33.995 118.251 33.9794 118.357 33.9092 118.355Z" fill="black"/>
<path id="Vector_198" d="M30.0898 117C30.3758 116.662 30.7944 116.568 31.1012 116.821C31.1506 116.862 31.2156 116.771 31.1662 116.73C30.8178 116.438 30.329 116.566 30.0066 116.945C29.9572 117.003 30.043 117.055 30.0898 117Z" fill="white"/>
<path id="Vector_199" d="M30.6592 117.187C30.9452 116.849 31.3638 116.756 31.6706 117.008C31.72 117.049 31.785 116.956 31.7356 116.917C31.3872 116.626 30.8984 116.75 30.576 117.133C30.5266 117.19 30.6124 117.242 30.6592 117.187Z" fill="white"/>
<path id="Vector_200" d="M31.2494 117.367C31.5354 117.029 31.954 116.932 32.2582 117.187C32.3076 117.229 32.3752 117.135 32.3258 117.096C31.9748 116.805 31.4886 116.93 31.1636 117.312C31.1168 117.367 31.2026 117.421 31.2494 117.367Z" fill="white"/>
<path id="Vector_201" d="M32.9784 63.973C32.9784 63.973 31.72 82.7476 31.2936 90.22C30.8204 98.7454 29.7518 113.277 29.6088 114.228H27.04C27.3338 114.517 23.7328 101.473 25.1862 90.8544C23.8238 80.6962 22.1676 73.2602 24.3022 63.6948L32.9784 63.973Z" fill="#263238"/>
<path id="Vector_202" d="M23.5196 64.4254C28.9354 66.2142 38.0354 65.6266 38.0354 64.3864C38.0354 60.8946 36.7978 56.966 37.1306 54.691C39.6916 52.8996 37.6896 51.2798 37.9106 48.6252C37.9873 47.6457 37.6948 46.6729 37.0904 45.8982C36.4861 45.1236 35.6137 44.6031 34.645 44.4392C34.1848 44.3612 33.7038 44.2832 33.2332 44.2234C33.137 44.2078 33.0408 44.1974 32.9472 44.187C31.6907 44.0439 30.426 43.9839 29.1616 44.0076C28.6988 44.0076 28.2204 44.0076 27.7186 44.0232C27.2168 44.0388 26.7332 44.0518 26.2704 44.0856C25.8632 44.1143 25.4665 44.2283 25.1062 44.4202C24.7459 44.6121 24.43 44.8776 24.1789 45.1996C23.9279 45.5215 23.7473 45.8926 23.6489 46.2888C23.5506 46.685 23.5366 47.0974 23.608 47.4994C24.0191 49.8297 24.2796 52.1841 24.388 54.548C24.4088 55.0368 24.427 55.5074 24.4322 55.9702C24.4654 57.5888 24.3916 59.2078 24.2112 60.8166C24.2112 60.8452 24.2112 60.8764 24.2112 60.905C24.1332 61.5446 24.0387 62.1348 23.9278 62.6756C23.894 62.8472 23.8576 63.0084 23.8186 63.167C23.7406 63.5024 23.6106 64.0926 23.5196 64.4254Z" fill="#F9800F"/>
<path id="Vector_203" opacity="0.2" d="M38.0354 64.3864C38.0354 65.6266 28.9354 66.2064 23.5222 64.4254C23.6106 64.0926 23.7406 63.5024 23.8186 63.167C23.8576 63.0084 23.894 62.8472 23.9278 62.6756C24.0387 62.1348 24.1332 61.5446 24.2112 60.905C24.2112 60.8764 24.2112 60.8452 24.2112 60.8166C24.3928 59.2078 24.4692 57.5889 24.44 55.9702C24.44 55.5074 24.4192 55.0368 24.3958 54.548C24.3646 53.833 24.3178 53.0972 24.2476 52.338C24.206 51.8492 24.1566 51.35 24.0968 50.8456C23.972 49.764 23.8108 48.646 23.608 47.4994C23.5367 47.0974 23.5506 46.685 23.649 46.2888C23.7473 45.8926 23.9279 45.5215 24.1789 45.1996C24.43 44.8776 24.7459 44.6121 25.1062 44.4202C25.4666 44.2283 25.8632 44.1143 26.2704 44.0856C26.7332 44.0518 27.2194 44.031 27.7186 44.0232C28.2178 44.0154 28.6988 44.0076 29.1616 44.0076C30.4261 43.9839 31.6907 44.0439 32.9472 44.187C33.0434 44.187 33.137 44.2078 33.2332 44.2234C33.7038 44.2832 34.1848 44.3612 34.6476 44.4392C35.6154 44.603 36.487 45.1227 37.0912 45.8963C37.6954 46.6698 37.9886 47.6413 37.9132 48.62C37.6922 51.2746 39.6916 52.8944 37.1332 54.6858C36.8004 56.966 38.0354 60.8946 38.0354 64.3864Z" fill="white"/>
<path id="Vector_204" opacity="0.2" d="M26.9516 48.269L24.2502 52.338C24.2086 51.8492 24.1592 51.35 24.0994 50.8456L26.9516 48.269Z" fill="black"/>
<path id="Vector_205" d="M33.2358 48.6538C33.2358 48.7 33.2541 48.7443 33.2868 48.777C33.3195 48.8097 33.3638 48.828 33.41 48.828C33.4562 48.828 33.5005 48.8097 33.5332 48.777C33.5658 48.7443 33.5842 48.7 33.5842 48.6538C33.5842 48.6076 33.5658 48.5633 33.5332 48.5306C33.5005 48.498 33.4562 48.4796 33.41 48.4796C33.3638 48.4796 33.3195 48.498 33.2868 48.5306C33.2541 48.5633 33.2358 48.6076 33.2358 48.6538Z" fill="#F9800F"/>
<path id="Vector_206" d="M33.5166 50.3881C33.6128 50.3881 33.6908 50.3101 33.6908 50.2139C33.6908 50.1177 33.6128 50.0397 33.5166 50.0397C33.4204 50.0397 33.3424 50.1177 33.3424 50.2139C33.3424 50.3101 33.4204 50.3881 33.5166 50.3881Z" fill="#F9800F"/>
<path id="Vector_207" d="M33.5166 51.9767C33.6128 51.9767 33.6908 51.8987 33.6908 51.8025C33.6908 51.7063 33.6128 51.6283 33.5166 51.6283C33.4204 51.6283 33.3424 51.7063 33.3424 51.8025C33.3424 51.8987 33.4204 51.9767 33.5166 51.9767Z" fill="#F9800F"/>
<path id="Vector_208" d="M29.1642 44.0076C30.446 46.2618 33.462 47.6112 33.462 47.6112C33.8702 46.5998 33.7428 44.9826 33.2358 44.2312C33.1396 44.2156 33.0434 44.2052 32.9498 44.1948C31.6934 44.0491 30.4288 43.9866 29.1642 44.0076Z" fill="#FF8B7B"/>
<path id="Vector_209" d="M33.28 44.8942C33.2922 44.9299 33.3088 44.964 33.3294 44.9956C33.7636 45.6846 33.2904 46.3112 32.5494 46.2592C32.4777 46.2541 32.4064 46.2437 32.3362 46.228C32.0655 46.1737 31.8183 46.0365 31.629 45.8354C31.052 45.216 30.4279 44.6423 29.7622 44.1194C30.8906 43.5136 31.304 41.366 31.408 40.0244L33.1578 42.2552L33.4854 42.7414C33.3252 43.0122 33.1978 43.3011 33.1058 43.602C33.0279 43.8154 33.0031 44.0445 33.0335 44.2696C33.0638 44.4947 33.1484 44.7091 33.28 44.8942Z" fill="#FF8B7B"/>
<path id="Vector_210" d="M29.913 44.0076C29.913 44.0076 28.873 43.7476 28.0384 44.0076L29.7388 46.93C30.6358 46.2774 31.6602 47.125 33.462 47.6112C31.9712 46.7578 30.7435 45.5113 29.913 44.0076Z" fill="#F9800F"/>
<path id="Vector_211" d="M29.913 44.0076C29.913 44.0076 28.873 43.7476 28.0384 44.0076L29.7388 46.93C30.6358 46.2774 31.6602 47.125 33.462 47.6112C31.9712 46.7578 30.7435 45.5113 29.913 44.0076Z" fill="#F9800F"/>
<path id="Vector_212" d="M33.02 44.1403C33.02 44.1403 34.06 43.9505 34.6606 44.4393C34.879 45.1934 35.0424 45.9625 35.1494 46.7403C35.1494 46.7403 34.1484 46.2411 33.475 47.6113C33.462 47.6113 33.8 45.4299 33.02 44.1403Z" fill="#F9800F"/>
<path id="Vector_213" d="M33.02 44.1403C33.02 44.1403 34.06 43.9505 34.6606 44.4393C34.879 45.1934 35.0424 45.9625 35.1494 46.7403C35.1494 46.7403 34.1484 46.2411 33.475 47.6113C33.462 47.6113 33.8 45.4299 33.02 44.1403Z" fill="#F9800F"/>
<g id="Group_2" opacity="0.2">
<path id="Vector_214" d="M33.0824 43.5995C33.1744 43.2986 33.3018 43.0097 33.462 42.7389L33.1344 42.2527L32.032 42.2787C32.2266 42.8229 32.5959 43.2874 33.0824 43.5995Z" fill="black"/>
</g>
<path id="Vector_215" d="M31.0622 37.6324C30.888 39.8372 30.7684 40.7524 31.6914 42.0394C33.0824 43.9556 35.7786 43.6774 36.595 41.5688C37.3308 39.6708 37.4946 36.3844 35.5186 35.2196C33.5426 34.0548 31.239 35.4276 31.0622 37.6324Z" fill="#FF8B7B"/>
<path id="Vector_216" d="M31.5484 39.0755C30.4434 38.7817 30.8776 37.6403 30.8776 37.6403L32.5052 37.9003C32.5052 37.9003 32.6534 39.3667 31.5484 39.0755Z" fill="#263238"/>
<path id="Vector_217" d="M36.01 35.425C36.01 35.425 35.9814 36.6444 34.4864 36.7094C32.9914 36.7744 33.1214 38.9844 31.447 38.6334C29.7726 38.2824 30.602 36.205 31.317 35.6512C32.032 35.0974 33.8 33.4412 36.01 35.425Z" fill="#263238"/>
<path id="Vector_218" d="M35.6772 41.0306C35.6772 41.0306 34.6034 40.5444 34.3772 40.0764C34.3772 40.0764 34.2212 40.9136 34.7828 41.2204C34.9287 41.3059 35.1013 41.3339 35.2668 41.2988C35.4322 41.2636 35.5786 41.168 35.6772 41.0306Z" fill="white"/>
<path id="Vector_219" d="M34.6892 38.6152C34.6658 38.7946 34.7386 38.9506 34.8556 38.9662C34.9726 38.9818 35.087 38.8518 35.1156 38.675C35.1442 38.4982 35.0688 38.3396 34.9518 38.324C34.8348 38.3084 34.7204 38.4384 34.6918 38.6152" fill="#263238"/>
<path id="Vector_220" d="M36.4988 38.909C36.4728 39.0884 36.5482 39.2444 36.6626 39.2626C36.777 39.2808 36.894 39.1456 36.9226 38.9688C36.9512 38.792 36.8732 38.6334 36.7562 38.6178C36.6392 38.6022 36.5248 38.7322 36.4962 38.909" fill="#263238"/>
<path id="Vector_221" d="M36.7016 38.6204L37.1462 38.5554C37.1462 38.5554 36.8862 38.8596 36.7016 38.6204Z" fill="#263238"/>
<path id="Vector_222" d="M35.8358 38.8727C35.8358 38.8727 36.075 39.3927 36.3558 39.8425C36.3793 39.8765 36.3943 39.9156 36.3996 39.9566C36.405 39.9976 36.4005 40.0392 36.3865 40.0781C36.3725 40.117 36.3494 40.152 36.3192 40.1802C36.289 40.2084 36.2525 40.229 36.2128 40.2403C36.0244 40.2993 35.8299 40.3368 35.633 40.3521L35.8358 38.8727Z" fill="#FF5652"/>
<path id="Vector_223" d="M30.0742 39.0365C30.1287 39.2301 30.2239 39.4098 30.3535 39.5636C30.4831 39.7174 30.644 39.8417 30.8256 39.9283C31.2936 40.1337 31.6056 39.6345 31.5484 39.0755C31.4938 38.5711 31.187 37.8561 30.6852 37.8951C30.1834 37.9341 29.9052 38.5269 30.0742 39.0365Z" fill="#FF8B7B"/>
<path id="Vector_224" d="M34.203 37.9028C34.2171 37.9033 34.2311 37.9008 34.2441 37.8954C34.2571 37.89 34.2688 37.8819 34.2784 37.8716C34.367 37.7727 34.4777 37.6959 34.6014 37.6476C34.7252 37.5993 34.8586 37.5807 34.9908 37.5934C35.0165 37.5943 35.0417 37.5859 35.0617 37.5697C35.0816 37.5535 35.0951 37.5306 35.0995 37.5053C35.1039 37.4799 35.0991 37.4538 35.0858 37.4318C35.0725 37.4098 35.0517 37.3933 35.0272 37.3854C34.8605 37.3651 34.6913 37.3855 34.5342 37.4448C34.3771 37.5041 34.2367 37.6006 34.125 37.726C34.1058 37.7459 34.095 37.7725 34.095 37.8001C34.095 37.8278 34.1058 37.8543 34.125 37.8742C34.1345 37.8837 34.1459 37.8911 34.1584 37.896C34.171 37.901 34.1844 37.9033 34.1978 37.9028" fill="#263238"/>
<path id="Vector_225" d="M37.3282 38.22C37.355 38.2222 37.3817 38.2148 37.4036 38.1992C37.4252 38.181 37.4389 38.1551 37.4419 38.127C37.4448 38.0988 37.4367 38.0707 37.4192 38.0484C37.3176 37.9153 37.1854 37.8086 37.0338 37.7376C36.8821 37.6665 36.7155 37.6331 36.5482 37.6402C36.5343 37.6412 36.5207 37.645 36.5083 37.6513C36.4959 37.6576 36.4849 37.6664 36.4759 37.677C36.4669 37.6877 36.4602 37.7001 36.4561 37.7134C36.452 37.7267 36.4506 37.7408 36.452 37.7546C36.4533 37.7686 36.4574 37.7823 36.464 37.7947C36.4706 37.8072 36.4796 37.8182 36.4905 37.8271C36.5013 37.8361 36.5139 37.8428 36.5274 37.8468C36.5409 37.8509 36.555 37.8523 36.569 37.8508C36.7015 37.847 36.8329 37.875 36.9524 37.9325C37.0718 37.9899 37.1757 38.0751 37.2554 38.181C37.2641 38.1923 37.2751 38.2016 37.2877 38.2083C37.3002 38.215 37.314 38.219 37.3282 38.22Z" fill="#263238"/>
<path id="Vector_226" d="M34.8946 38.3266L35.3392 38.2616C35.3392 38.2616 35.0792 38.5658 34.8946 38.3266Z" fill="#263238"/>
<path id="Vector_227" d="M21.3772 57.8033C22.2846 59.2593 23.296 60.7231 24.2866 62.1661L22.7552 63.5441C21.3866 62.3236 20.1002 61.0138 18.9046 59.6233C18.2722 58.8987 17.6902 58.1316 17.1626 57.3275C17.0248 57.1117 16.8896 56.8881 16.7596 56.6385C16.6104 56.364 16.4835 56.0779 16.38 55.7831C16.3141 55.59 16.2645 55.3917 16.2318 55.1903C16.1808 54.89 16.1808 54.5832 16.2318 54.2829C16.2787 54.0142 16.3581 53.7523 16.4684 53.5029C16.5398 53.3385 16.6196 53.178 16.7076 53.0219C16.9814 52.5529 17.289 52.1045 17.628 51.6803C17.9348 51.2877 18.2416 50.9211 18.551 50.5649C19.1802 49.8629 19.8094 49.1895 20.462 48.5447C21.762 47.2447 23.0828 46.0331 24.505 44.8683L27.2064 48.0325L23.3064 51.5321C22.6694 52.1223 22.0298 52.6995 21.4344 53.2949C21.1328 53.5861 20.839 53.8799 20.5686 54.1711C20.3288 54.4237 20.1031 54.6893 19.8926 54.9667V54.9797C19.9108 55.0291 19.929 55.0837 19.9498 55.1383C20.0096 55.2917 20.0824 55.4607 20.1604 55.6349C20.5273 56.3787 20.9335 57.1026 21.3772 57.8033Z" fill="#F9800F"/>
<path id="Vector_228" opacity="0.2" d="M21.3772 57.8033C22.2846 59.2593 23.296 60.7231 24.2866 62.1661L22.7552 63.5441C21.3866 62.3236 20.1002 61.0138 18.9046 59.6233C18.2722 58.8987 17.6902 58.1316 17.1626 57.3275C17.0248 57.1117 16.8896 56.8881 16.7596 56.6385C16.6104 56.364 16.4835 56.0779 16.38 55.7831C16.3141 55.59 16.2645 55.3917 16.2318 55.1903C16.1808 54.89 16.1808 54.5832 16.2318 54.2829C16.2787 54.0142 16.3581 53.7523 16.4684 53.5029C16.5398 53.3385 16.6196 53.178 16.7076 53.0219C16.9814 52.5529 17.289 52.1045 17.628 51.6803C17.9348 51.2877 18.2416 50.9211 18.551 50.5649C19.1802 49.8629 19.8094 49.1895 20.462 48.5447C21.762 47.2447 23.0828 46.0331 24.505 44.8683L27.2064 48.0325L23.3064 51.5321C22.6694 52.1223 22.0298 52.6995 21.4344 53.2949C21.1328 53.5861 20.839 53.8799 20.5686 54.1711C20.3288 54.4237 20.1031 54.6893 19.8926 54.9667V54.9797C19.9108 55.0291 19.929 55.0837 19.9498 55.1383C20.0096 55.2917 20.0824 55.4607 20.1604 55.6349C20.5273 56.3787 20.9335 57.1026 21.3772 57.8033Z" fill="white"/>
<path id="Vector_229" d="M24.18 61.5212C24.18 61.5212 25.9064 62.1608 26.1716 62.4988C26.4368 62.8368 24.7442 64.7452 24.0916 65.0104C23.439 65.2756 23.7744 64.4904 23.7744 64.4904C23.7744 64.4904 22.9242 64.6906 22.5264 64.0432C22.1286 63.3958 22.5966 61.62 24.18 61.5212Z" fill="#FF8B7B"/>
<path id="Vector_230" d="M42.5698 66.4664C42.5698 66.4664 42.7284 66.43 43.03 66.0166C43.2162 65.739 43.3158 65.4123 43.316 65.078L42.224 66.0036C42.224 66.0036 41.2542 65.6318 40.664 66.0712C39.4576 66.9578 39.7982 67.9562 39.9386 68.2448C40.079 68.5334 41.0748 68.3566 41.7586 67.782C42.1682 67.4462 42.4538 66.9832 42.5698 66.4664Z" fill="#FF8B7B"/>
</g>
</g>
<defs>
<clipPath id="clip0_42_667">
<rect width="130" height="130" fill="white"/>
</clipPath>
</defs>
</svg>
