<svg width="170" height="170" viewBox="0 0 170 170" fill="none" xmlns="http://www.w3.org/2000/svg">
<g id="Product tour-bro 1">
<g id="freepik--background-simple--inject-34">
<path id="Vector" d="M48.6982 38.9028C48.6982 38.9028 29.58 53.9818 22.44 72.573C15.3 91.1642 20.7026 112.013 37.06 124.933C53.4174 137.853 77.7988 130.628 100.718 136.197C123.638 141.766 146.129 134.98 151.409 111.945C156.689 88.91 140.189 84.184 132.369 60.4486C124.549 36.7132 94.3976 5.86502 48.6982 38.9028Z" fill="#92E3A9"/>
<path id="Vector_2" opacity="0.7" d="M48.6982 38.9028C48.6982 38.9028 29.58 53.9818 22.44 72.573C15.3 91.1642 20.7026 112.013 37.06 124.933C53.4174 137.853 77.7988 130.628 100.718 136.197C123.638 141.766 146.129 134.98 151.409 111.945C156.689 88.91 140.189 84.184 132.369 60.4486C124.549 36.7132 94.3976 5.86502 48.6982 38.9028Z" fill="white"/>
</g>
<g id="freepik--Plants--inject-34">
<path id="Vector_3" d="M26.248 138.961H156.601" stroke="#263238" stroke-miterlimit="10"/>
<path id="Vector_4" d="M20.706 138.961H22.7494" stroke="#263238" stroke-miterlimit="10"/>
<path id="Vector_5" d="M147.274 69.02C147.274 69.02 147.274 67.1024 144.585 64.413C141.896 61.7236 140.165 60.1902 140.165 60.1902C140.165 60.1902 138.805 64.6102 141.314 67.2928C143.15 69.1848 145.141 70.9192 147.268 72.4778L147.274 69.02Z" fill="#92E3A9"/>
<path id="Vector_6" d="M143.375 81.0084C143.375 81.0084 143.375 79.0874 140.685 76.4014C137.996 73.7154 136.265 72.1752 136.265 72.1752C136.265 72.1752 134.905 76.5952 137.418 79.2812C139.255 81.172 141.246 82.9064 143.371 84.4662L143.375 81.0084Z" fill="#92E3A9"/>
<path id="Vector_7" d="M147.104 72.2874C147.104 72.2874 147.308 70.38 150.266 67.9898C153.224 65.5996 155.101 64.2498 155.101 64.2498C155.101 64.2498 155.972 68.782 153.207 71.1926C151.183 72.8775 149.022 74.3912 146.747 75.718L147.104 72.2874Z" fill="#92E3A9"/>
<path id="Vector_8" d="M142.392 86.4484C142.392 86.4484 142.793 84.5716 145.986 82.5078C149.178 80.444 151.191 79.3016 151.191 79.3016C151.191 79.3016 151.579 83.9018 148.573 86.0064C146.382 87.4707 144.072 88.749 141.668 89.828L142.392 86.4484Z" fill="#92E3A9"/>
<path id="Vector_9" d="M143.279 101.888C143.279 101.888 143.279 99.9702 145.965 97.2808C148.651 94.5914 150.385 93.058 150.385 93.058C150.385 93.058 151.728 97.478 149.233 100.161C147.398 102.052 145.407 103.786 143.283 105.346L143.279 101.888Z" fill="#92E3A9"/>
<path id="Vector_10" d="M143.235 105.658C143.235 105.658 143.507 103.758 141.229 100.715C138.951 97.6718 137.455 95.9072 137.455 95.9072C137.455 95.9072 135.5 100.086 137.588 103.102C139.136 105.235 140.86 107.234 142.742 109.079L143.235 105.658Z" fill="#92E3A9"/>
<path id="Vector_11" d="M140.583 116.827C140.583 116.827 140.583 114.906 143.273 112.22C145.962 109.534 147.693 107.994 147.693 107.994C147.693 107.994 149.053 112.414 146.543 115.1C144.706 116.99 142.715 118.723 140.59 120.282L140.583 116.827Z" fill="#92E3A9"/>
<path id="Vector_12" d="M142.378 126.953C142.378 126.953 141.892 125.096 143.81 121.815C145.727 118.534 147.013 116.62 147.013 116.62C147.013 116.62 149.433 120.55 147.693 123.784C146.395 126.079 144.907 128.262 143.245 130.308L142.378 126.953Z" fill="#92E3A9"/>
<path id="Vector_13" d="M147.519 68.527C147.382 70.5256 147.136 72.5153 146.781 74.4872C145.721 79.9782 143.062 83.5176 142.001 88.4782C140.94 93.4388 143.987 99.824 143.171 106.196C142.355 112.567 139.876 116.107 140.583 120.357C141.29 124.607 145.003 136.116 145.003 136.116" stroke="#263238" stroke-linecap="round" stroke-linejoin="round"/>
<path id="Vector_14" d="M147.077 73.5624L149.974 71.3422" stroke="#263238" stroke-linecap="round" stroke-linejoin="round"/>
<path id="Vector_15" d="M147.213 71.0056L145.999 68.8466" stroke="#263238" stroke-linecap="round" stroke-linejoin="round"/>
<path id="Vector_16" d="M142.161 88.2504C142.161 88.2504 144.585 86.4314 147.077 84.6124" stroke="#263238" stroke-linecap="round" stroke-linejoin="round"/>
<path id="Vector_17" d="M143.375 84.4662C143.375 84.4662 141.352 80.5018 139.063 77.877" stroke="#263238" stroke-linecap="round" stroke-linejoin="round"/>
<path id="Vector_18" d="M143.375 104.621C144.759 102.07 146.505 99.7326 148.56 97.682" stroke="#263238" stroke-linecap="round" stroke-linejoin="round"/>
<path id="Vector_19" d="M142.902 107.314C142.165 105.586 141.286 103.923 140.274 102.34C138.859 100.252 138.659 99.9838 138.659 99.9838" stroke="#263238" stroke-linecap="round" stroke-linejoin="round"/>
<path id="Vector_20" d="M140.583 120.36C141.197 118.833 141.927 117.356 142.766 115.94C143.606 114.629 144.553 113.389 145.598 112.234" stroke="#263238" stroke-linecap="round" stroke-linejoin="round"/>
<path id="Vector_21" d="M143.252 130.298C143.252 130.298 142.97 127.996 143.98 126.045C144.99 124.093 146.135 121.53 146.608 120.52" stroke="#263238" stroke-linecap="round" stroke-linejoin="round"/>
<path id="Vector_22" d="M129.673 94.6696C129.673 94.6696 129.462 93.466 130.856 91.4872C132.25 89.5084 133.168 88.3592 133.168 88.3592C133.168 88.3592 134.49 90.9806 133.215 92.939C132.27 94.324 131.21 95.6274 130.047 96.8354L129.673 94.6696Z" fill="#92E3A9"/>
<path id="Vector_23" d="M133.419 101.765C133.419 101.765 133.212 100.562 134.606 98.583C136 96.6042 136.915 95.455 136.915 95.455C136.915 95.455 138.237 98.0764 136.966 100.035C136.019 101.419 134.959 102.722 133.797 103.931L133.419 101.765Z" fill="#92E3A9"/>
<path id="Vector_24" d="M130.132 96.6994C130.132 96.6994 129.792 95.5264 127.684 94.35C125.576 93.1736 124.246 92.531 124.246 92.531C124.246 92.531 124.192 95.4686 126.188 96.679C127.641 97.5169 129.161 98.2323 130.733 98.8176L130.132 96.6994Z" fill="#92E3A9"/>
<path id="Vector_25" d="M134.64 105.06C134.64 105.06 134.184 103.924 131.957 102.976C129.73 102.027 128.347 101.531 128.347 101.531C128.347 101.531 128.602 104.458 130.727 105.454C132.265 106.134 133.857 106.685 135.487 107.1L134.64 105.06Z" fill="#92E3A9"/>
<path id="Vector_26" d="M135.745 114.849C135.745 114.849 135.538 113.645 133.559 112.251C131.58 110.857 130.332 110.082 130.332 110.082C130.332 110.082 129.968 112.996 131.825 114.41C133.182 115.396 134.62 116.267 136.122 117.014L135.745 114.849Z" fill="#92E3A9"/>
<path id="Vector_27" d="M136.184 117.205C136.184 117.205 135.806 116.045 136.904 113.89C138.003 111.734 138.747 110.463 138.747 110.463C138.747 110.463 140.43 112.873 139.448 114.991C138.707 116.496 137.843 117.937 136.864 119.299L136.184 117.205Z" fill="#92E3A9"/>
<path id="Vector_28" d="M139.556 126.919C139.556 126.919 139.696 125.705 141.596 124.199C143.497 122.692 144.694 121.849 144.694 121.849C144.694 121.849 145.224 124.739 143.449 126.269C142.15 127.331 140.765 128.283 139.308 129.115L139.556 126.919Z" fill="#92E3A9"/>
<path id="Vector_29" d="M139.06 123.923C139.06 123.923 138.853 122.72 136.877 121.326C134.902 119.932 133.647 119.156 133.647 119.156C133.647 119.156 133.28 122.06 135.136 123.485C136.494 124.471 137.932 125.342 139.434 126.089L139.06 123.923Z" fill="#92E3A9"/>
<path id="Vector_30" d="M139.033 130.468C139.033 130.468 139.135 129.251 137.574 127.408C136.014 125.565 135 124.491 135 124.491C135 124.491 133.912 127.211 135.34 129.057C136.403 130.355 137.572 131.562 138.836 132.665L139.033 130.468Z" fill="#92E3A9"/>
<path id="Vector_31" d="M129.465 94.3874C129.765 95.6253 130.131 96.8464 130.56 98.0458C131.825 101.371 133.875 103.306 135.079 106.298C136.282 109.29 135.079 113.631 136.269 117.535C137.459 121.438 139.41 123.393 139.427 126.137C139.444 128.88 138.38 136.5 138.38 136.5" stroke="#263238" stroke-linecap="round" stroke-linejoin="round"/>
<path id="Vector_32" d="M130.288 97.4984L128.231 96.4172" stroke="#263238" stroke-linecap="round" stroke-linejoin="round"/>
<path id="Vector_33" d="M129.924 95.9072L130.451 94.4248" stroke="#263238" stroke-linecap="round" stroke-linejoin="round"/>
<path id="Vector_34" d="M134.98 106.175C134.98 106.175 133.28 105.295 131.502 104.428" stroke="#263238" stroke-linecap="round" stroke-linejoin="round"/>
<path id="Vector_35" d="M133.797 103.931C134.301 102.334 134.966 100.793 135.782 99.331" stroke="#263238" stroke-linecap="round" stroke-linejoin="round"/>
<path id="Vector_36" d="M136 116.572C134.856 115.121 133.507 113.844 131.995 112.781" stroke="#263238" stroke-linecap="round" stroke-linejoin="round"/>
<path id="Vector_37" d="M136.571 118.208C136.845 117.046 137.214 115.909 137.676 114.808C138.339 113.346 138.434 113.155 138.434 113.155" stroke="#263238" stroke-linecap="round" stroke-linejoin="round"/>
<path id="Vector_38" d="M139.349 128.214C139.349 128.214 140.709 126.545 141.559 125.919C142.072 125.542 142.553 125.123 142.997 124.668" stroke="#263238" stroke-linecap="round" stroke-linejoin="round"/>
<path id="Vector_39" d="M139.441 126.14C138.89 125.249 138.272 124.403 137.591 123.607C136.923 122.876 136.195 122.201 135.415 121.591" stroke="#263238" stroke-linecap="round" stroke-linejoin="round"/>
<path id="Vector_40" d="M138.846 132.658C138.776 131.729 138.459 130.836 137.928 130.07C137.081 128.955 136.085 127.473 135.68 126.891" stroke="#263238" stroke-linecap="round" stroke-linejoin="round"/>
<path id="Vector_41" d="M132.886 135.17H150.47V141.321C150.47 141.637 150.345 141.939 150.122 142.162C149.899 142.386 149.596 142.511 149.28 142.511H134.076C133.76 142.511 133.457 142.386 133.234 142.162C133.011 141.939 132.886 141.637 132.886 141.321V135.17Z" fill="#263238" stroke="#263238" stroke-linecap="round" stroke-linejoin="round"/>
<path id="Vector_42" d="M150.314 137.462H132.886C132.525 137.462 132.179 137.319 131.924 137.064C131.669 136.809 131.526 136.463 131.526 136.102C131.523 135.922 131.557 135.743 131.624 135.576C131.692 135.409 131.791 135.257 131.918 135.129C132.044 135.001 132.195 134.9 132.361 134.83C132.527 134.761 132.706 134.725 132.886 134.725H150.314C150.494 134.725 150.672 134.761 150.838 134.83C151.005 134.9 151.155 135.001 151.282 135.129C151.408 135.257 151.508 135.409 151.575 135.576C151.643 135.743 151.676 135.922 151.674 136.102C151.674 136.463 151.531 136.809 151.276 137.064C151.021 137.319 150.675 137.462 150.314 137.462Z" fill="#263238" stroke="#263238" stroke-linecap="round" stroke-linejoin="round"/>
<path id="Vector_43" d="M133.576 137.523H146.234" stroke="white" stroke-linecap="round" stroke-linejoin="round"/>
<path id="Vector_44" d="M147.424 137.523H149.508" stroke="white" stroke-linecap="round" stroke-linejoin="round"/>
</g>
<g id="freepik--Device--inject-34">
<path id="Vector_45" d="M125.627 146.435C125.627 147.516 100.807 148.393 70.1794 148.393C39.5522 148.393 14.7288 147.516 14.7288 146.435C14.7288 145.353 39.5488 144.476 70.1794 144.476C100.81 144.476 125.627 145.353 125.627 146.435Z" fill="#CCCCCC"/>
<path id="Vector_46" d="M66.1912 128.829C66.1912 128.829 68.884 140.423 67.711 142.327C66.1776 144.82 49.8372 146.322 49.8372 146.322H85.8772C85.8772 146.322 90.3924 145.054 89.0358 141.423C87.9852 138.615 82.943 128.843 82.943 128.843L66.1912 128.829Z" fill="white" stroke="#263238" stroke-linecap="round" stroke-linejoin="round"/>
<path id="Vector_47" d="M65.399 128.829C65.399 128.829 68.2754 140.519 66.9222 142.327C65.569 144.136 49.8372 145.52 49.8372 145.52H86.0404C86.0404 145.52 89.0834 144.289 88.2368 141.44C87.3902 138.591 82.1474 128.86 82.1474 128.86L65.399 128.829Z" fill="white" stroke="#263238" stroke-linecap="round" stroke-linejoin="round"/>
<path id="Vector_48" d="M82.1474 128.829H65.399C65.399 128.829 67.099 135.755 67.269 139.771H87.6112C85.9656 135.912 82.1474 128.829 82.1474 128.829Z" fill="#263238" stroke="#263238" stroke-linecap="round" stroke-linejoin="round"/>
<path id="Vector_49" d="M85.8704 145.574H49.8372V146.319H85.8704V145.574Z" fill="white" stroke="#263238" stroke-linecap="round" stroke-linejoin="round"/>
<path id="Vector_50" d="M126.477 48.433H23.5246C21.9323 48.433 20.6414 49.7238 20.6414 51.3162V127.089C20.6414 128.681 21.9323 129.972 23.5246 129.972H126.477C128.069 129.972 129.36 128.681 129.36 127.089V51.3162C129.36 49.7238 128.069 48.433 126.477 48.433Z" fill="white" stroke="#263238" stroke-linecap="round" stroke-linejoin="round"/>
<path id="Vector_51" d="M123.913 48.433H20.961C19.3687 48.433 18.0778 49.7238 18.0778 51.3162V127.089C18.0778 128.681 19.3687 129.972 20.961 129.972H123.913C125.505 129.972 126.796 128.681 126.796 127.089V51.3162C126.796 49.7238 125.505 48.433 123.913 48.433Z" fill="#263238" stroke="#263238" stroke-linecap="round" stroke-linejoin="round"/>
<path id="Vector_52" d="M18.0778 117.3H126.8V127.089C126.8 127.853 126.496 128.587 125.955 129.127C125.414 129.668 124.681 129.972 123.916 129.972H20.9644C20.5858 129.972 20.2109 129.897 19.861 129.752C19.5112 129.607 19.1934 129.395 18.9257 129.127C18.6579 128.86 18.4456 128.542 18.3007 128.192C18.1558 127.842 18.0812 127.467 18.0812 127.089V117.3H18.0778Z" fill="white" stroke="#263238" stroke-linecap="round" stroke-linejoin="round"/>
<path id="Vector_53" d="M121.329 53.5058H23.5484V111.112H121.329V53.5058Z" fill="#90D4E9" stroke="#263238" stroke-linecap="round" stroke-linejoin="round"/>
<path id="Vector_54" d="M74.46 123.634C74.46 123.237 74.3424 122.85 74.1219 122.52C73.9015 122.19 73.5882 121.933 73.2217 121.781C72.8551 121.629 72.4518 121.589 72.0627 121.667C71.6735 121.744 71.3161 121.935 71.0355 122.216C70.755 122.496 70.5639 122.854 70.4865 123.243C70.4091 123.632 70.4489 124.035 70.6007 124.402C70.7525 124.768 71.0096 125.082 71.3395 125.302C71.6694 125.523 72.0573 125.64 72.454 125.64C72.986 125.64 73.4963 125.429 73.8725 125.053C74.2487 124.676 74.46 124.166 74.46 123.634Z" fill="#263238" stroke="#263238" stroke-linecap="round" stroke-linejoin="round"/>
<path id="Vector_55" d="M120.411 57.5688H24.3168V62.6178H120.411V57.5688Z" fill="#263238" stroke="#263238" stroke-linecap="round" stroke-linejoin="round"/>
<path id="Vector_56" d="M113.886 58.956H97.7908V62.0636H113.886V58.956Z" fill="white"/>
<path id="Vector_57" d="M118.572 61.404L117.232 60.6594C117.269 60.5334 117.29 60.4031 117.293 60.2718C117.298 59.9253 117.181 59.5882 116.962 59.32C116.742 59.0517 116.435 58.8697 116.095 58.806C115.754 58.7423 115.402 58.8011 115.1 58.972C114.799 59.1428 114.568 59.4147 114.447 59.7397C114.327 60.0646 114.325 60.4216 114.443 60.7476C114.56 61.0736 114.789 61.3476 115.089 61.5211C115.389 61.6946 115.74 61.7566 116.082 61.6959C116.423 61.6353 116.731 61.456 116.953 61.1898L118.279 61.9276C118.323 61.9514 118.372 61.9642 118.422 61.965C118.476 61.9648 118.528 61.9502 118.574 61.9226C118.62 61.8951 118.658 61.8557 118.684 61.8086C118.704 61.7748 118.716 61.7374 118.722 61.6986C118.727 61.6597 118.724 61.6203 118.713 61.5825C118.703 61.5448 118.685 61.5096 118.661 61.4789C118.636 61.4482 118.606 61.4227 118.572 61.404ZM115.852 61.1252C115.682 61.1252 115.516 61.0748 115.375 60.9805C115.234 60.8862 115.124 60.7522 115.06 60.5955C114.995 60.4387 114.978 60.2663 115.012 60.1C115.045 59.9337 115.127 59.781 115.247 59.6613C115.367 59.5416 115.52 59.4603 115.687 59.4276C115.853 59.395 116.025 59.4124 116.182 59.4778C116.338 59.5432 116.472 59.6535 116.566 59.7948C116.659 59.9362 116.709 60.1022 116.708 60.2718C116.708 60.3852 116.685 60.4973 116.641 60.6018C116.597 60.7062 116.532 60.8009 116.451 60.8803C116.37 60.9597 116.275 61.0222 116.169 61.0642C116.064 61.1063 115.951 61.127 115.838 61.1252H115.852Z" fill="white"/>
<path id="Vector_58" d="M43.18 59.5H52.649C52.9195 59.5 53.179 59.6075 53.3702 59.7988C53.5615 59.99 53.669 60.2495 53.669 60.52V64.8584H42.1804V60.52C42.1803 60.253 42.285 59.9966 42.4719 59.8059C42.6588 59.6152 42.913 59.5053 43.18 59.5Z" fill="#808080" stroke="#808080" stroke-miterlimit="10"/>
<path id="Vector_59" d="M55.964 59.5H65.433C65.7035 59.5 65.963 59.6075 66.1542 59.7988C66.3455 59.99 66.453 60.2495 66.453 60.52V64.8584H54.9508V60.52C54.9508 60.2507 55.0573 59.9922 55.2471 59.8011C55.437 59.6101 55.6947 59.5018 55.964 59.5Z" fill="#808080" stroke="#808080" stroke-miterlimit="10"/>
<path id="Vector_60" d="M68.7344 59.5H78.2C78.4705 59.5 78.73 59.6075 78.9212 59.7988C79.1125 59.99 79.22 60.2495 79.22 60.52V64.8584H67.7212V60.52C67.7212 60.2507 67.8277 59.9922 68.0175 59.8011C68.2074 59.6101 68.4651 59.5018 68.7344 59.5Z" fill="#90D4E9" stroke="#263238" stroke-linecap="round" stroke-linejoin="round"/>
<path id="Vector_61" d="M81.5048 59.5H90.9738C91.2443 59.5 91.5038 59.6075 91.695 59.7988C91.8863 59.99 91.9938 60.2495 91.9938 60.52V64.8584H80.4916V60.52C80.4916 60.2507 80.5981 59.9922 80.7879 59.8011C80.9778 59.6101 81.2355 59.5018 81.5048 59.5Z" fill="#808080" stroke="#808080" stroke-miterlimit="10"/>
<path id="Vector_62" d="M40.171 62.6178L39.0218 59.4966H24.3168V62.6178V66.7522V108.661H120.411V62.6178H40.171Z" fill="white" stroke="#263238" stroke-linecap="round" stroke-linejoin="round"/>
<path id="Vector_63" d="M90.2496 90.7154H65.0148V106.07H90.134" stroke="#999999" stroke-width="0.5" stroke-linecap="round" stroke-linejoin="round"/>
<path id="Vector_64" d="M65.1304 95.0912H90.3618" stroke="#999999" stroke-width="0.5" stroke-linecap="round" stroke-linejoin="round"/>
<path id="Vector_65" d="M65.1304 99.4602H90.3618" stroke="#999999" stroke-width="0.5" stroke-linecap="round" stroke-linejoin="round"/>
<path id="Vector_66" d="M65.1304 103.826H90.3618" stroke="#999999" stroke-width="0.5" stroke-linecap="round" stroke-linejoin="round"/>
<path id="Vector_67" d="M64.3246 90.814H63.2876" stroke="#999999" stroke-width="0.5" stroke-linecap="round" stroke-linejoin="round"/>
<path id="Vector_68" d="M64.3246 92.9798H63.2876" stroke="#999999" stroke-width="0.5" stroke-linecap="round" stroke-linejoin="round"/>
<path id="Vector_69" d="M64.3246 95.1456H63.2876" stroke="#999999" stroke-width="0.5" stroke-linecap="round" stroke-linejoin="round"/>
<path id="Vector_70" d="M64.3246 97.3114H63.2876" stroke="#999999" stroke-width="0.5" stroke-linecap="round" stroke-linejoin="round"/>
<path id="Vector_71" d="M64.3246 99.4738H63.2876" stroke="#999999" stroke-width="0.5" stroke-linecap="round" stroke-linejoin="round"/>
<path id="Vector_72" d="M64.3246 101.64H63.2876" stroke="#999999" stroke-width="0.5" stroke-linecap="round" stroke-linejoin="round"/>
<path id="Vector_73" d="M64.3246 103.805H63.2876" stroke="#999999" stroke-width="0.5" stroke-linecap="round" stroke-linejoin="round"/>
<path id="Vector_74" d="M64.3246 105.971H63.2876" stroke="#999999" stroke-width="0.5" stroke-linecap="round" stroke-linejoin="round"/>
<path id="Vector_75" d="M67.0922 96.8626H65.9328V106.009H67.0922V96.8626Z" fill="#263238" stroke="#999999" stroke-linecap="round" stroke-linejoin="round"/>
<path id="Vector_76" d="M69.1526 92.4834H67.9932V106.009H69.1526V92.4834Z" fill="#92E3A9" stroke="#999999" stroke-linecap="round" stroke-linejoin="round"/>
<path id="Vector_77" d="M71.213 96.8626H70.0536V106.009H71.213V96.8626Z" fill="white" stroke="#999999" stroke-linecap="round" stroke-linejoin="round"/>
<path id="Vector_78" d="M75.854 93.9012H74.6946V106.012H75.854V93.9012Z" fill="#263238" stroke="#999999" stroke-linecap="round" stroke-linejoin="round"/>
<path id="Vector_79" d="M77.9144 95.7032H76.755V106.009H77.9144V95.7032Z" fill="#92E3A9" stroke="#999999" stroke-linecap="round" stroke-linejoin="round"/>
<path id="Vector_80" d="M79.9748 100.858H78.8154V106.012H79.9748V100.858Z" fill="white" stroke="#999999" stroke-linecap="round" stroke-linejoin="round"/>
<path id="Vector_81" d="M84.6124 96.8626H83.453V106.009H84.6124V96.8626Z" fill="#263238" stroke="#999999" stroke-linecap="round" stroke-linejoin="round"/>
<path id="Vector_82" d="M86.6728 92.4834H85.5134V106.009H86.6728V92.4834Z" fill="#92E3A9" stroke="#999999" stroke-linecap="round" stroke-linejoin="round"/>
<path id="Vector_83" d="M88.7366 96.8626H87.5772V106.009H88.7366V96.8626Z" fill="white" stroke="#999999" stroke-linecap="round" stroke-linejoin="round"/>
<path id="Vector_84" d="M38.0222 70.618C38.0911 70.4107 38.1266 70.1938 38.1276 69.9754C38.1276 69.1764 37.3184 69.1322 36.5228 69.1322H36.3222V68.9418H39.78V69.1322C38.879 69.1322 38.5628 69.7034 38.2704 70.5602L36.431 76.0784C36.2882 76.4898 36.1726 76.7958 35.751 76.7958H35.7L34.0714 71.5224L32.5482 76.0784C32.4054 76.4898 32.2898 76.7958 31.8682 76.7958H31.8342L29.4542 69.1322H28.6348V68.9418H31.6948V69.1322H30.8142L32.572 75.1774H32.64L33.9626 71.145L33.3438 69.1322H32.5142V68.9418H35.5742V69.1322H34.68L36.4378 75.1774H36.5092L38.0222 70.618Z" fill="#808080"/>
<path id="Vector_85" d="M63.8146 80.8418H89.8552" stroke="#999999" stroke-width="0.5" stroke-linecap="round" stroke-linejoin="round"/>
<path id="Vector_86" d="M63.8146 82.3412H89.8552" stroke="#999999" stroke-width="0.5" stroke-linecap="round" stroke-linejoin="round"/>
<path id="Vector_87" d="M63.8146 83.8372H89.8552" stroke="#999999" stroke-width="0.5" stroke-linecap="round" stroke-linejoin="round"/>
<path id="Vector_88" d="M63.8146 85.3332H89.8552" stroke="#999999" stroke-width="0.5" stroke-linecap="round" stroke-linejoin="round"/>
<path id="Vector_89" d="M63.8146 86.8292H89.8552" stroke="#999999" stroke-width="0.5" stroke-linecap="round" stroke-linejoin="round"/>
<path id="Vector_90" d="M63.8146 88.3252H89.8552" stroke="#999999" stroke-width="0.5" stroke-linecap="round" stroke-linejoin="round"/>
<path id="Vector_91" d="M28.0466 80.8418H54.0872" stroke="#999999" stroke-width="0.5" stroke-linecap="round" stroke-linejoin="round"/>
<path id="Vector_92" d="M28.0466 82.3412H54.0872" stroke="#999999" stroke-width="0.5" stroke-linecap="round" stroke-linejoin="round"/>
<path id="Vector_93" d="M28.0466 83.8372H54.0872" stroke="#999999" stroke-width="0.5" stroke-linecap="round" stroke-linejoin="round"/>
<path id="Vector_94" d="M28.0466 85.3332H54.0872" stroke="#999999" stroke-width="0.5" stroke-linecap="round" stroke-linejoin="round"/>
<path id="Vector_95" d="M28.0466 86.8292H54.0872" stroke="#999999" stroke-width="0.5" stroke-linecap="round" stroke-linejoin="round"/>
<path id="Vector_96" d="M28.0466 88.3252H54.0872" stroke="#999999" stroke-width="0.5" stroke-linecap="round" stroke-linejoin="round"/>
<path id="Vector_97" d="M40.4702 68.7208H56.3312" stroke="#999999" stroke-width="0.5" stroke-linecap="round" stroke-linejoin="round"/>
<path id="Vector_98" d="M40.4702 70.2168H56.3312" stroke="#999999" stroke-width="0.5" stroke-linecap="round" stroke-linejoin="round"/>
<path id="Vector_99" d="M40.4702 71.7162H56.3312" stroke="#999999" stroke-width="0.5" stroke-linecap="round" stroke-linejoin="round"/>
<path id="Vector_100" d="M40.4702 73.2122H56.3312" stroke="#999999" stroke-width="0.5" stroke-linecap="round" stroke-linejoin="round"/>
<path id="Vector_101" d="M40.4702 74.7082H56.3312" stroke="#999999" stroke-width="0.5" stroke-linecap="round" stroke-linejoin="round"/>
<path id="Vector_102" d="M40.4702 76.2042H56.3312" stroke="#999999" stroke-width="0.5" stroke-linecap="round" stroke-linejoin="round"/>
<path id="Vector_103" d="M56.6304 90.4196H27.4482V106.134H56.6304V90.4196Z" stroke="#999999" stroke-width="0.5" stroke-linecap="round" stroke-linejoin="round"/>
<path id="Vector_104" d="M27.4482 106.134L56.6304 90.4196" stroke="#999999" stroke-width="0.5" stroke-linecap="round" stroke-linejoin="round"/>
<path id="Vector_105" d="M33.7657 99.3212C35.2122 98.9755 36.1046 97.5227 35.7589 96.0763C35.4132 94.6298 33.9604 93.7374 32.514 94.0831C31.0675 94.4288 30.1751 95.8816 30.5208 97.328C30.8665 98.7745 32.3193 99.6669 33.7657 99.3212Z" stroke="#999999" stroke-width="0.5" stroke-linecap="round" stroke-linejoin="round"/>
<path id="Vector_106" d="M100.031 80.393H104.669" stroke="#808080" stroke-miterlimit="10"/>
<path id="Vector_107" d="M98.532 79.9442H95.3904V83.0858H98.532V79.9442Z" fill="#808080" stroke="#808080" stroke-miterlimit="10"/>
<path id="Vector_108" d="M100.031 81.7428H108.409" stroke="#808080" stroke-miterlimit="10"/>
<path id="Vector_109" d="M100.031 86.9788H104.669" stroke="#808080" stroke-miterlimit="10"/>
<path id="Vector_110" d="M98.532 86.53H95.3904V89.6716H98.532V86.53Z" fill="#808080" stroke="#808080" stroke-miterlimit="10"/>
<path id="Vector_111" d="M100.031 88.3252H108.409" stroke="#808080" stroke-miterlimit="10"/>
<path id="Vector_112" d="M100.031 93.5646H104.669" stroke="#808080" stroke-miterlimit="10"/>
<path id="Vector_113" d="M98.532 93.1158H95.3904V96.2574H98.532V93.1158Z" fill="#808080" stroke="#808080" stroke-miterlimit="10"/>
<path id="Vector_114" d="M100.031 94.911H108.409" stroke="#808080" stroke-miterlimit="10"/>
<path id="Vector_115" d="M100.031 100.147H104.669" stroke="#808080" stroke-miterlimit="10"/>
<path id="Vector_116" d="M98.532 99.6982H95.3904V102.84H98.532V99.6982Z" fill="#808080" stroke="#808080" stroke-miterlimit="10"/>
<path id="Vector_117" d="M100.031 101.493H108.409" stroke="#808080" stroke-miterlimit="10"/>
<path id="Vector_118" d="M93.245 62.5158V108.606" stroke="#263238" stroke-linecap="round" stroke-linejoin="round"/>
<path id="Vector_119" opacity="0.5" d="M78.7202 68.1394H74.817L73.2802 65.2154L71.434 68.1394H64.107C63.99 68.1394 63.8742 68.1624 63.7661 68.2072C63.658 68.252 63.5598 68.3176 63.4771 68.4003C63.3944 68.483 63.3288 68.5812 63.284 68.6893C63.2392 68.7974 63.2162 68.9132 63.2162 69.0302V77.4724C63.2158 77.5897 63.2385 77.7059 63.283 77.8143C63.3276 77.9228 63.3931 78.0214 63.4759 78.1045C63.5587 78.1876 63.657 78.2535 63.7653 78.2985C63.8736 78.3434 63.9897 78.3666 64.107 78.3666H78.727C78.8443 78.3666 78.9604 78.3434 79.0687 78.2985C79.177 78.2535 79.2753 78.1876 79.3581 78.1045C79.4409 78.0214 79.5064 77.9228 79.551 77.8143C79.5955 77.7059 79.6183 77.5897 79.6178 77.4724V69.02C79.6151 68.7843 79.5191 68.5593 79.3509 68.3943C79.1827 68.2292 78.9559 68.1376 78.7202 68.1394Z" fill="black"/>
<path id="Vector_120" d="M77.4214 66.8406H73.5182L71.9814 63.9166L70.1352 66.8406H62.8082C62.5719 66.8406 62.3454 66.9344 62.1783 67.1015C62.0113 67.2685 61.9174 67.4951 61.9174 67.7314V76.16C61.917 76.2772 61.9397 76.3934 61.9842 76.5019C62.0288 76.6104 62.0943 76.709 62.1771 76.7921C62.2599 76.8751 62.3582 76.9411 62.4665 76.986C62.5748 77.031 62.6909 77.0542 62.8082 77.0542H77.4282C77.5455 77.0542 77.6616 77.031 77.7699 76.986C77.8782 76.9411 77.9765 76.8751 78.0593 76.7921C78.1421 76.709 78.2076 76.6104 78.2522 76.5019C78.2967 76.3934 78.3194 76.2772 78.319 76.16V67.7314C78.319 67.6138 78.2957 67.4974 78.2505 67.3889C78.2054 67.2804 78.1391 67.1819 78.0557 67.0991C77.9722 67.0163 77.8732 66.9508 77.7644 66.9064C77.6555 66.862 77.539 66.8397 77.4214 66.8406Z" fill="#90D4E9" stroke="#263238" stroke-width="2" stroke-linecap="round" stroke-linejoin="round"/>
<path id="Vector_121" d="M63.5392 68.9486H76.6904" stroke="#263238" stroke-linecap="round" stroke-linejoin="round"/>
<path id="Vector_122" d="M63.5392 71.1144H76.6904" stroke="#263238" stroke-linecap="round" stroke-linejoin="round"/>
<path id="Vector_123" d="M63.5392 73.2802H76.6904" stroke="#263238" stroke-linecap="round" stroke-linejoin="round"/>
<path id="Vector_124" d="M63.5392 75.4426H76.6904" stroke="#263238" stroke-linecap="round" stroke-linejoin="round"/>
<path id="Vector_125" opacity="0.5" d="M111.425 68.1394H107.525L105.985 65.2154L104.139 68.1394H96.8116C96.6946 68.1394 96.5788 68.1624 96.4707 68.2072C96.3626 68.252 96.2644 68.3176 96.1817 68.4003C96.099 68.483 96.0334 68.5812 95.9886 68.6893C95.9438 68.7974 95.9208 68.9132 95.9208 69.0302V77.4724C95.9203 77.5897 95.9431 77.7059 95.9876 77.8143C96.0322 77.9228 96.0977 78.0214 96.1805 78.1045C96.2633 78.1876 96.3616 78.2535 96.4699 78.2985C96.5782 78.3434 96.6943 78.3666 96.8116 78.3666H111.432C111.549 78.3666 111.665 78.3434 111.773 78.2985C111.882 78.2535 111.98 78.1876 112.063 78.1045C112.145 78.0214 112.211 77.9228 112.256 77.8143C112.3 77.7059 112.323 77.5897 112.322 77.4724V69.02C112.32 68.7843 112.224 68.5593 112.055 68.3943C111.887 68.2292 111.66 68.1376 111.425 68.1394Z" fill="black"/>
<path id="Vector_126" d="M110.126 66.8406H106.226L104.686 63.92L102.84 66.844H95.5128C95.2766 66.844 95.05 66.9378 94.8829 67.1049C94.7159 67.272 94.622 67.4985 94.622 67.7348V76.16C94.6215 76.2773 94.6443 76.3935 94.6888 76.5019C94.7334 76.6104 94.7989 76.709 94.8817 76.7921C94.9645 76.8752 95.0628 76.9411 95.1711 76.9861C95.2794 77.031 95.3955 77.0542 95.5128 77.0542H110.133C110.25 77.0542 110.366 77.031 110.474 76.9861C110.583 76.9411 110.681 76.8752 110.764 76.7921C110.847 76.709 110.912 76.6104 110.957 76.5019C111.001 76.3935 111.024 76.2773 111.024 76.16V67.7314C111.024 67.6138 111 67.4974 110.955 67.3889C110.91 67.2804 110.844 67.1819 110.76 67.0991C110.677 67.0163 110.578 66.9508 110.469 66.9064C110.36 66.8621 110.244 66.8397 110.126 66.8406Z" fill="#90D4E9" stroke="#263238" stroke-width="2" stroke-linecap="round" stroke-linejoin="round"/>
<path id="Vector_127" d="M96.2438 68.9486H109.395" stroke="#263238" stroke-linecap="round" stroke-linejoin="round"/>
<path id="Vector_128" d="M96.2438 71.1144H109.395" stroke="#263238" stroke-linecap="round" stroke-linejoin="round"/>
<path id="Vector_129" d="M96.2438 73.2802H109.395" stroke="#263238" stroke-linecap="round" stroke-linejoin="round"/>
<path id="Vector_130" d="M96.2438 75.4426H109.395" stroke="#263238" stroke-linecap="round" stroke-linejoin="round"/>
<path id="Vector_131" opacity="0.5" d="M42.4762 80.2672H30.2362C29.9341 80.2672 29.6444 80.3872 29.4308 80.6008C29.2172 80.8144 29.0972 81.1041 29.0972 81.4062V88.2402C29.0968 88.3901 29.1259 88.5385 29.1829 88.6771C29.24 88.8157 29.3238 88.9417 29.4296 89.0478C29.5354 89.1539 29.6611 89.2381 29.7995 89.2956C29.938 89.353 30.0863 89.3826 30.2362 89.3826H35.1186L36.2168 91.8034L37.3184 89.3826H42.4864C42.6363 89.3826 42.7847 89.353 42.9231 89.2956C43.0615 89.2381 43.1872 89.1539 43.293 89.0478C43.3988 88.9417 43.4826 88.8157 43.5397 88.6771C43.5967 88.5385 43.6258 88.3901 43.6254 88.2402V81.4062C43.6254 81.2558 43.5956 81.1068 43.5377 80.9679C43.4799 80.8291 43.395 80.7031 43.2882 80.5972C43.1813 80.4913 43.0546 80.4076 42.9152 80.351C42.7758 80.2943 42.6266 80.2658 42.4762 80.2672Z" fill="black"/>
<path id="Vector_132" d="M41.3372 79.2676H29.0972C28.7951 79.2676 28.5054 79.3876 28.2918 79.6012C28.0782 79.8148 27.9582 80.1045 27.9582 80.4066V87.244C27.956 87.3941 27.9834 87.5432 28.039 87.6827C28.0946 87.8222 28.1772 87.9493 28.2821 88.0568C28.3871 88.1642 28.5122 88.2498 28.6503 88.3087C28.7884 88.3676 28.9368 88.3987 29.087 88.4H33.9694L35.0676 90.8242L36.1692 88.4H41.3372C41.6393 88.4 41.929 88.28 42.1426 88.0664C42.3562 87.8528 42.4762 87.5631 42.4762 87.261V80.4066C42.4762 80.1045 42.3562 79.8148 42.1426 79.6012C41.929 79.3876 41.6393 79.2676 41.3372 79.2676Z" fill="#90D4E9" stroke="#263238" stroke-width="2" stroke-linecap="round" stroke-linejoin="round"/>
<path id="Vector_133" d="M29.3726 80.9778H41.0516" stroke="#263238" stroke-linecap="round" stroke-linejoin="round"/>
<path id="Vector_134" d="M29.3726 83.0178H41.0516" stroke="#263238" stroke-linecap="round" stroke-linejoin="round"/>
<path id="Vector_135" d="M29.3726 85.0612H41.0516" stroke="#263238" stroke-linecap="round" stroke-linejoin="round"/>
<path id="Vector_136" d="M29.3726 87.1012H41.0516" stroke="#263238" stroke-linecap="round" stroke-linejoin="round"/>
</g>
<g id="freepik--Character--inject-34">
<path id="Vector_137" d="M141.355 148.753C141.355 149.835 134.674 150.712 126.436 150.712C118.198 150.712 111.52 149.835 111.52 148.753C111.52 147.672 118.198 146.795 126.436 146.795C134.674 146.795 141.355 147.672 141.355 148.753Z" fill="#CCCCCC"/>
<path id="Vector_138" d="M102.513 90.729C102.513 90.729 101.803 90.049 101.922 90.61C102.041 91.171 102.789 91.7524 103.142 92.0278C103.496 92.3032 104.326 92.1468 104.326 92.1468L102.513 90.729Z" fill="white" stroke="#263238" stroke-linecap="round" stroke-linejoin="round"/>
<path id="Vector_139" d="M110.16 92.225C110.16 92.225 109.215 90.9636 108.661 90.372C108.106 89.7804 107.392 89.352 106.804 89.386C106.216 89.42 105.488 89.5968 105.016 89.5968C104.543 89.5968 104.067 89.2806 103.996 89.5968C103.924 89.913 104.071 89.9368 104.465 90.1068C104.859 90.2768 105.692 90.5046 105.692 90.5046C105.692 90.5046 104.649 90.8446 104.332 91.0044C104.016 91.1642 103.346 90.8446 103.346 90.8446C103.346 90.8446 102.204 89.9402 102.204 90.4128C102.204 90.8854 102.993 91.477 103.428 91.7932C103.863 92.1094 104.02 92.3814 104.608 92.2658C105.196 92.1502 107.644 91.5144 107.644 91.5144L108.946 93.0546L110.16 92.225Z" fill="white" stroke="#263238" stroke-linecap="round" stroke-linejoin="round"/>
<g id="Vector_140">
<path d="M105.233 92.0278C105.233 92.0278 104.445 92.2658 104.128 92.0278C103.812 91.7898 102.711 90.8446 102.592 90.253C102.473 89.6614 104.564 91.358 104.564 91.358C104.564 91.358 106.264 90.5692 106.651 90.4502C106.774 90.4197 106.902 90.4183 107.025 90.4461C107.149 90.4738 107.264 90.5299 107.362 90.61" fill="white"/>
<path d="M105.233 92.0278C105.233 92.0278 104.445 92.2658 104.128 92.0278C103.812 91.7898 102.711 90.8446 102.592 90.253C102.473 89.6614 104.564 91.358 104.564 91.358C104.564 91.358 106.264 90.5692 106.651 90.4502C106.774 90.4197 106.902 90.4183 107.025 90.4461C107.149 90.4738 107.264 90.5299 107.362 90.61" stroke="#263238" stroke-linecap="round" stroke-linejoin="round"/>
</g>
<path id="Vector_141" d="M120.931 147.676C120.832 147.794 120.761 147.934 120.724 148.084C120.687 148.235 120.685 148.391 120.717 148.543C120.86 148.978 121.655 149.593 122.92 149.593C124.185 149.593 124.766 149.121 124.872 148.4C124.951 147.751 124.988 147.098 124.981 146.445C124.981 146.156 124.549 146.951 123.247 147.387C122.504 147.645 121.715 147.743 120.931 147.676Z" fill="#92E3A9" stroke="#263238" stroke-linecap="round" stroke-linejoin="round"/>
<path id="Vector_142" d="M119.884 122.478C119.884 122.478 120.904 125.443 120.751 126.742C120.598 128.041 120.102 130.142 120.717 133.032C121.332 135.922 122.886 142.144 122.849 143.844C122.811 145.544 121.727 146.302 121.006 147.458C120.285 148.614 122.026 149.267 123.644 149.049C125.263 148.832 124.838 146.122 125.004 143.735C125.171 141.348 124.474 140.42 124.583 137.02C124.692 133.62 125.127 131.165 125.161 128.054C125.195 124.943 125.307 122.414 125.307 122.414L119.884 122.478Z" fill="white" stroke="#263238" stroke-linecap="round" stroke-linejoin="round"/>
<path id="Vector_143" d="M132.066 146.917C132.066 146.917 131.454 148.277 131.454 148.978C131.454 149.678 132.648 150.243 133.406 150.171C134.164 150.1 134.633 149.699 134.851 148.689C135.068 147.679 134.779 145.544 134.779 145.544L132.066 146.917Z" fill="#92E3A9" stroke="#263238" stroke-linecap="round" stroke-linejoin="round"/>
<path id="Vector_144" d="M124.151 122.536C124.151 122.536 124.42 125.477 124.783 126.633C125.147 127.789 127.803 132.998 129.176 135.674C130.55 138.349 132.753 142.722 132.862 143.494C132.971 144.265 132.141 146.822 131.743 147.798C131.345 148.774 131.815 149.389 132.682 149.607C133.549 149.824 134.419 149.267 134.742 148.05C135.065 146.832 135.082 145.88 134.922 144.109C134.762 142.338 134.599 142.664 134.242 141.651C133.885 140.638 132.542 135.531 131.862 133.011C131.182 130.492 131.067 128.418 130.234 126.973C129.401 125.528 128.789 124.661 128.789 124.661C128.789 124.661 129.04 122.526 129.04 122.417C129.04 122.308 124.151 122.536 124.151 122.536Z" fill="white" stroke="#263238" stroke-linecap="round" stroke-linejoin="round"/>
<path id="Vector_145" d="M121.866 86.6694C121.866 86.6694 117.844 87.771 117.766 88.1654C117.688 88.5598 114.93 97.2706 114.651 97.427C114.373 97.5834 114.22 97.4678 114.22 97.4678L110.082 91.8L107.756 93.415C108.488 95.0268 109.316 96.5925 110.238 98.1036C111.775 100.626 114.458 102.524 115.046 102.323C115.634 102.122 119.619 95.778 119.619 95.778C119.619 95.778 120.958 98.3008 120.639 99.0522C120.405 99.6455 120.086 100.202 119.694 100.705C119.496 100.902 115.991 105.125 116.069 109.81C116.147 114.495 119.469 123.291 119.469 123.291H129.441C129.441 123.291 131.804 117.773 131.961 113.121C132.117 108.47 131.213 104.016 130.621 102.323C130.03 100.63 129.601 99.0522 129.601 99.0522L131.179 94.7138C131.179 94.7138 135.041 99.9192 135.789 100.116C136.537 100.314 138.152 99.8784 138.193 98.4164C138.234 96.9544 134.004 90.78 133.572 89.42C133.141 88.06 133.018 87.686 132.43 87.5296C131.842 87.3732 128.646 86.6626 127.422 86.5096C126.022 86.3542 124.614 86.2884 123.206 86.3124C122.735 86.3076 122.272 86.4311 121.866 86.6694Z" fill="#90D4E9" stroke="#263238" stroke-linecap="round" stroke-linejoin="round"/>
<path id="Vector_146" d="M131.169 94.707L132.348 91.239" stroke="#263238" stroke-linecap="round" stroke-linejoin="round"/>
<path id="Vector_147" d="M119.619 95.7712L118.279 91.8714" stroke="#263238" stroke-linecap="round" stroke-linejoin="round"/>
<path id="Vector_148" d="M123.801 120.53C123.801 120.53 124.052 111.962 126.572 107.93" stroke="#263238" stroke-linecap="round" stroke-linejoin="round"/>
<path id="Vector_149" d="M123.678 85.7208C123.064 85.7451 122.46 85.8931 121.904 86.156C121.722 86.2369 121.565 86.3628 121.446 86.5217C121.327 86.6805 121.25 86.8671 121.224 87.0638C121.224 87.0638 122.485 89.9402 123.264 91.7524C124.042 93.5646 124.964 94.945 125.589 94.4724C126.215 93.9998 128.35 89.3078 128.649 87.9682C128.948 86.6286 128.731 86.5504 128.139 86.0778C127.676 85.6537 127.067 85.4268 126.439 85.4454C125.8 85.4454 123.678 85.7208 123.678 85.7208Z" fill="white" stroke="#263238" stroke-linecap="round" stroke-linejoin="round"/>
<path id="Vector_150" d="M125.885 72.9708C125.885 72.9708 124.399 73.5318 123.706 74.5212C123.012 75.5106 123.026 76.0342 122.686 76.5952C122.346 77.1562 121.261 77.4894 121.128 77.6866C121.067 77.7969 121.031 77.9201 121.025 78.0464C121.019 78.1727 121.043 78.2986 121.094 78.4142C121.196 78.5774 121.492 78.5876 121.492 78.5876C121.421 79.2664 121.431 79.9513 121.523 80.6276C121.645 81.0798 121.719 81.5436 121.744 82.0114C121.744 82.2732 121.788 82.5962 122.152 82.5962C122.516 82.5962 123.576 82.6336 123.675 82.6336C123.774 82.6336 123.719 84.099 123.573 84.9422C123.427 85.7854 123.318 85.9316 123.06 86.0404C122.926 86.0938 122.802 86.1685 122.692 86.2614C122.692 86.2614 123.06 87.2814 123.243 88.0396C123.427 88.7978 124.749 92.1638 125.004 91.7252C125.98 89.9464 126.72 88.0479 127.204 86.0778C127.204 86.0778 126.738 85.7378 126.674 84.2146C126.609 82.6914 127.265 81.9026 127.595 81.7734C127.925 81.6442 130.927 81.3756 131.488 79.2982C132.049 77.2208 131.257 74.6776 129.788 73.3924C128.319 72.1072 125.885 72.9708 125.885 72.9708Z" fill="white" stroke="#263238" stroke-linecap="round" stroke-linejoin="round"/>
<path id="Vector_151" d="M123.855 77.1222C123.763 77.3194 123.6 77.4384 123.491 77.3908C123.383 77.3432 123.372 77.1392 123.468 76.9386C123.563 76.738 123.719 76.6224 123.828 76.6734C123.937 76.7244 123.947 76.925 123.855 77.1222Z" fill="#263238"/>
<path id="Vector_152" d="M123.287 76.7584C123.287 76.7584 123.76 76.1396 123.937 76.3164C124.114 76.4932 123.937 76.891 123.848 77.0542" stroke="#263238" stroke-width="0.75" stroke-linecap="round" stroke-linejoin="round"/>
<path id="Vector_153" d="M121.972 79.968C122.207 80.0228 122.453 80.0072 122.68 79.9231C122.907 79.8391 123.104 79.6904 123.247 79.4954" stroke="#263238" stroke-linecap="round" stroke-linejoin="round"/>
<path id="Vector_154" d="M123.553 75.735C123.553 75.735 124.015 75.0958 124.406 75.4868C124.522 75.6162 124.61 75.7681 124.665 75.933C124.72 76.0979 124.741 76.2724 124.726 76.4456" stroke="#263238" stroke-linecap="round" stroke-linejoin="round"/>
<path id="Vector_155" d="M133.011 83.215C133.012 83.6954 132.87 84.1652 132.604 84.565C132.337 84.9647 131.958 85.2764 131.514 85.4605C131.071 85.6447 130.582 85.6931 130.111 85.5995C129.64 85.5059 129.207 85.2747 128.867 84.9349C128.528 84.5952 128.296 84.1624 128.203 83.6911C128.109 83.2199 128.157 82.7315 128.342 82.2878C128.526 81.8441 128.837 81.465 129.237 81.1985C129.637 80.932 130.107 80.7901 130.587 80.7908C131.23 80.7908 131.847 81.0462 132.301 81.5008C132.756 81.9554 133.011 82.572 133.011 83.215Z" fill="#263238" stroke="#263238" stroke-linecap="round" stroke-linejoin="round"/>
<path id="Vector_156" d="M124.681 72.7294C124.681 74.5382 125.8 77.061 126.201 77.894C126.292 78.1485 126.472 78.3613 126.708 78.4924C127.048 78.6386 127.439 78.421 127.728 78.1932C128.017 77.9654 128.353 77.6968 128.727 77.7342C128.911 77.7676 129.078 77.8601 129.204 77.9976C129.33 78.1352 129.407 78.3101 129.424 78.4958C129.448 78.8671 129.326 79.2331 129.084 79.5158C128.848 79.8032 128.545 80.0274 128.2 80.1681C127.856 80.3087 127.482 80.3615 127.112 80.3216C127.191 80.7243 127.377 81.0982 127.652 81.4036C127.926 81.7089 128.278 81.9342 128.67 82.0556C129.064 82.1701 129.478 82.2053 129.886 82.1592C130.295 82.1131 130.69 81.9866 131.05 81.787C131.561 81.4999 132.011 81.113 132.37 80.6494C132.73 80.1857 132.993 79.6545 133.144 79.0874C133.438 77.9474 133.39 76.7463 133.008 75.633C132.634 74.5187 132.004 73.5076 131.168 72.681C130.333 71.8543 129.315 71.2351 128.197 70.873C127.426 70.6505 126.61 70.64 125.834 70.8424C124.981 71.06 124.685 71.808 124.681 72.7294Z" fill="#263238" stroke="#263238" stroke-linecap="round" stroke-linejoin="round"/>
<path id="Vector_157" d="M127.582 80.0904C127.587 80.0234 127.579 79.9559 127.557 79.8923C127.535 79.8286 127.501 79.7702 127.455 79.7207C127.409 79.6712 127.354 79.6316 127.293 79.6046C127.231 79.5776 127.164 79.5636 127.097 79.5636C127.03 79.5636 126.963 79.5776 126.902 79.6046C126.84 79.6316 126.785 79.6712 126.739 79.7207C126.694 79.7702 126.659 79.8286 126.637 79.8923C126.615 79.9559 126.607 80.0234 126.613 80.0904C126.623 80.2119 126.678 80.3251 126.768 80.4077C126.858 80.4902 126.975 80.536 127.097 80.536C127.219 80.536 127.336 80.4902 127.426 80.4077C127.516 80.3251 127.571 80.2119 127.582 80.0904Z" fill="#92E3A9" stroke="#263238" stroke-width="0.75" stroke-linecap="round" stroke-linejoin="round"/>
<path id="Vector_158" d="M131.128 93.8026H122.417V105.825H131.128V93.8026Z" fill="#263238" stroke="#263238" stroke-linecap="round" stroke-linejoin="round"/>
<path id="Vector_159" d="M128.408 93.1702H125.137V94.2752H128.408V93.1702Z" fill="white" stroke="#263238" stroke-linecap="round" stroke-linejoin="round"/>
<path id="Vector_160" d="M127.619 99.5962C127.068 99.4674 126.528 99.2958 126.004 99.0828C125.445 98.7473 124.983 98.2714 124.664 97.7024C124.348 97.1516 124.151 97.2298 123.403 97.2298H121.904C121.747 97.2298 121.669 97.3896 121.866 97.6242C122.025 97.7894 122.232 97.9001 122.458 97.9404C122.577 97.9812 122.89 98.0594 122.89 98.0594L123.247 98.1784C123.247 98.1784 121.669 98.2566 121.472 98.6102C121.275 98.9638 121.353 99.4398 121.628 99.518C121.904 99.5962 121.904 99.5962 121.968 99.7526C122.033 99.909 122.006 100.344 122.084 100.62C122.116 100.731 122.172 100.834 122.247 100.922C122.322 101.011 122.415 101.083 122.519 101.133C122.716 101.252 122.859 101.408 124.134 101.408C125.409 101.408 126.698 101.211 126.895 101.211H127.84L127.619 99.5962Z" fill="white" stroke="#263238" stroke-linecap="round" stroke-linejoin="round"/>
<g id="Vector_161">
<path d="M136.054 97.6242C136.054 97.6242 132.824 98.8856 130.302 99.161C127.779 99.4364 127.463 99.4398 127.463 99.4398V102.34C129.825 102.393 132.184 102.129 134.477 101.555C138.142 100.606 139.012 100.133 139.237 99.3446C139.461 98.5558 137.462 96.509 137.462 96.509" fill="#92E3A9"/>
<path d="M136.054 97.6242C136.054 97.6242 132.824 98.8856 130.302 99.161C127.779 99.4364 127.463 99.4398 127.463 99.4398V102.34C129.825 102.393 132.184 102.129 134.477 101.555C138.142 100.606 139.012 100.133 139.237 99.3446C139.461 98.5558 137.462 96.509 137.462 96.509" stroke="#263238" stroke-linecap="round" stroke-linejoin="round"/>
</g>
<path id="Vector_162" d="M121.38 146.951C121.38 146.951 122.465 145.469 124.885 146.951L124.994 145.904C124.994 145.904 124.018 145.224 123.26 145.255L122.502 145.289C122.097 145.822 121.723 146.377 121.38 146.951Z" fill="#92E3A9" stroke="#263238" stroke-linecap="round" stroke-linejoin="round"/>
<path id="Vector_163" d="M131.743 147.784C131.975 147.602 132.244 147.472 132.531 147.403C132.818 147.334 133.116 147.329 133.406 147.387C133.683 147.453 133.943 147.579 134.168 147.755C134.392 147.931 134.577 148.153 134.708 148.407L134.922 147.285C134.853 147.039 134.713 146.82 134.52 146.653C134.328 146.486 134.09 146.38 133.838 146.346C133.289 146.26 132.728 146.323 132.212 146.526C132.095 146.959 131.938 147.381 131.743 147.784Z" fill="#92E3A9" stroke="#263238" stroke-linecap="round" stroke-linejoin="round"/>
</g>
</g>
</svg>
